<?xml version="1.0" encoding="UTF-8" standalone="no"?>
<svg
   xmlns:dc="http://purl.org/dc/elements/1.1/"
   xmlns:cc="http://creativecommons.org/ns#"
   xmlns:rdf="http://www.w3.org/1999/02/22-rdf-syntax-ns#"
   xmlns:svg="http://www.w3.org/2000/svg"
   xmlns="http://www.w3.org/2000/svg"
   xmlns:sodipodi="http://sodipodi.sourceforge.net/DTD/sodipodi-0.dtd"
   xmlns:inkscape="http://www.inkscape.org/namespaces/inkscape"
   id="Capa_1"
   enable-background="new 0 0 511.988 511.988"
   height="512"
   viewBox="0 0 511.988 511.988"
   width="512"
   version="1.1"
   sodipodi:docname="megaphone_heart.svg"
   inkscape:version="1.0.1 (3bc2e813f5, 2020-09-07)">
  <metadata
     id="metadata134">
    <rdf:RDF>
      <cc:Work
         rdf:about="">
        <dc:format>image/svg+xml</dc:format>
        <dc:type
           rdf:resource="http://purl.org/dc/dcmitype/StillImage" />
      </cc:Work>
    </rdf:RDF>
  </metadata>
  <defs
     id="defs132" />
  <sodipodi:namedview
     pagecolor="#ffffff"
     bordercolor="#666666"
     borderopacity="1"
     objecttolerance="10"
     gridtolerance="10"
     guidetolerance="10"
     inkscape:pageopacity="0"
     inkscape:pageshadow="2"
     inkscape:window-width="1644"
     inkscape:window-height="1064"
     id="namedview130"
     showgrid="false"
     inkscape:zoom="1.139381"
     inkscape:cx="236.8198"
     inkscape:cy="149.62859"
     inkscape:window-x="0"
     inkscape:window-y="0"
     inkscape:window-maximized="1"
     inkscape:current-layer="Capa_1" />
  <g
     id="g127"
     style="fill:#f3efea;fill-opacity:1">
    <path
       d="m418.905 4.344c-43.117-11.649-89.645.677-121.425 32.171-2.942 2.916-2.964 7.664-.048 10.606 2.917 2.941 7.665 2.963 10.606.048 27.997-27.744 68.977-38.609 106.956-28.344 59.008 15.928 94.069 76.93 78.156 135.985-7.708 28.619-26.086 52.52-51.748 67.3-25.658 14.777-55.524 18.669-84.115 10.952-6.543-1.755-12.952-4.131-19.051-7.06-3.099-1.487-6.811-.679-9.01 1.961-5.922 7.109-15.705 8.964-22.87 9.268-8.259.352-15.859-1.194-20.998-2.923 9.353-12.47 15.627-29.028 9.779-44.636-.207-.552-.479-1.077-.809-1.565-18.052-26.729-23.599-59.918-15.219-91.046 1.951-7.204 4.599-14.19 7.868-20.764 1.845-3.709.334-8.211-3.374-10.056-3.71-1.847-8.212-.333-10.056 3.374-3.709 7.455-6.709 15.37-8.92 23.536-9.43 35.03-3.33 72.345 16.729 102.542 4.022 12.229-4.447 26.717-13.078 35.538-2.861 2.925-2.851 7.604.025 10.516 6.034 6.108 21.335 10.531 35.79 10.531.97 0 1.938-.021 2.897-.061 12.163-.517 22.289-4.112 29.648-10.472 5.437 2.327 11.052 4.271 16.749 5.801 32.448 8.758 66.364 4.341 95.5-12.438 29.133-16.779 49.995-43.911 58.745-76.397 18.066-67.035-21.739-136.285-88.727-154.367z"
       id="path121"
       style="fill:#f3efea;fill-opacity:1" />
    <path
       d="m330.739 144.688 46.585 46.226c2.314 2.291 5.476 4.377 8.822 4.377 3.353 0 6.478-2.084 8.793-4.375l46.615-46.228c.042-.041.083-.083.124-.125 16.565-17.2 16.55-45.173-.026-62.347-14.136-14.7-37.811-14.168-55.52 1.053-17.723-15.219-41.387-15.749-55.512-1.062-16.594 17.192-16.594 45.168 0 62.36.04.042.079.081.119.121zm10.683-52.073c9.87-10.264 25.747-6.276 35.69 2.697.713.64 1.279 1.18 1.74 1.619 1.703 1.622 3.823 3.642 7.293 3.642 3.45 0 5.549-2.003 7.236-3.612.465-.444 1.04-.994 1.785-1.663 9.928-8.959 25.804-12.947 35.683-2.673 11.028 11.426 11.059 30.012.081 41.473l-44.798 44.426-39.242-38.947-5.532-5.48c-10.994-11.456-10.977-30.043.064-41.482z"
       id="path123"
       style="fill:#f3efea;fill-opacity:1" />
    <path
       d="m181.77 179.107c-4.959-6.328-12.106-10.343-20.126-11.306-8.003-.956-15.889 1.246-22.182 6.204-6.319 4.96-10.33 12.108-11.293 20.129-.891 7.426.941 14.741 5.156 20.785l-55.023 115.25-1.376-1.755c-3.004-3.854-7.343-6.296-12.218-6.879-4.846-.578-9.633.751-13.473 3.751-.005.004-.011.008-.016.012l-31.014 24.359c-3.846 3.004-6.288 7.336-6.879 12.199-.591 4.871.748 9.672 3.766 13.511l7.176 9.155-18.778 14.755c-3.017 2.344-4.929 5.727-5.386 9.523-.456 3.794.599 7.529 2.941 10.479l30.46 38.896c2.816 3.551 7.002 5.405 11.22 5.405 3.076 0 6.171-.987 8.764-3.022l18.812-14.763 7.17 9.146c3.598 4.588 8.973 6.986 14.407 6.986 1.696 0 3.395-.249 5.051-.723l35.493 45.308c2.342 2.988 5.719 4.886 9.51 5.342.584.07 1.166.105 1.745.105 3.175 0 6.233-1.049 8.761-3.033l19.41-15.256c6.169-4.844 7.251-13.809 2.412-19.983l-35.508-45.296c3.587-6.264 3.265-14.361-1.46-20.42l-1.398-1.783 124.939-26.057c4.879 5.544 11.551 9.065 18.975 9.968 1.245.151 2.485.227 3.718.227 6.706-.001 13.166-2.217 18.508-6.409 13.048-10.28 15.329-29.276 5.086-42.348zm-136.95 269.188-29.498-37.666 18.195-14.296 29.53 37.658zm46.454-2.608-11.667-14.884c-.043-.058-.079-.119-.124-.176l-50.591-64.522c-.73-.93-.735-1.929-.674-2.441.062-.508.303-1.468 1.237-2.197l31.019-24.363c.938-.73 1.938-.738 2.453-.675.506.061 1.461.298 2.183 1.224l53.395 68.117c.03.041.063.08.094.12l8.875 11.322c1.112 1.427.87 3.556-.546 4.661l-.465.365c-.016.012-.034.023-.05.035l-17.55 13.788-12.951 10.172c-1.415 1.107-3.54.854-4.638-.546zm54.488 50.98-34.196-43.653 5.336-4.192 12.876-10.113 34.208 43.636zm148.998-124.54c-3.157 2.479-7.117 3.571-11.143 3.083-4.031-.489-7.617-2.502-10.099-5.669l-52.812-67.345c-2.556-3.26-7.269-3.829-10.529-1.273s-3.83 7.271-1.273 10.529l43.542 55.524-124.876 26.044-38.937-49.672 54.996-115.194 44.005 56.151c2.555 3.261 7.271 3.832 10.529 1.277 3.261-2.555 3.832-7.27 1.277-10.529l-53.278-67.984c-2.482-3.157-3.584-7.115-3.1-11.147.484-4.039 2.495-7.632 5.672-10.125 3.15-2.482 7.097-3.582 11.123-3.102 4.033.484 7.622 2.495 10.106 5.665l127.349 162.463c5.155 6.577 4.005 16.138-2.552 21.304z"
       id="path125"
       style="fill:#f3efea;fill-opacity:1" />
  </g>
</svg>
