<svg id="Layer_1" data-name="Layer 1" xmlns="http://www.w3.org/2000/svg" viewBox="0 0 848.64 409.42"><defs><style>.cls-1{isolation:isolate;}.cls-2{fill:#65c8d0;}.cls-3,.cls-5,.cls-7{fill:none;}.cls-3{stroke:#1a1a1a;stroke-width:8px;}.cls-3,.cls-7{stroke-miterlimit:10;}.cls-4{fill:#1a1a1a;}.cls-6{fill:#00687f;}.cls-7{stroke:#65c8d0;stroke-width:7px;}</style></defs><title>Extended_light_variant</title><g class="cls-1"><g class="cls-1"><path class="cls-2" d="M103.05,70c0,27-19.18,49-46.2,49H20V21H56.85C83.87,21,103.05,43,103.05,70Zm-7.28,0c0-23.24-15.82-42-38.92-42H27.45v84h29.4C80,112,95.77,93.24,95.77,70Z" transform="translate(0 -16)"/></g><g class="cls-1"><path class="cls-2" d="M149,48v6.72c-12,0-23.38,7.42-23.38,25.34V119h-7V49h7V62.72C130.35,51.66,139.45,48,149,48Z" transform="translate(0 -16)"/></g><g class="cls-1"><path class="cls-2" d="M223.17,84.28c0,1.12-.14,2.24-.14,3.36H159.61c1.68,15.82,13.72,26.18,29.68,26.18,11.48,0,20.16-5.32,24.22-12.74l6.16,3.64c-5.74,9.52-16.66,15.82-30.52,15.82-21.56,0-36.82-15.4-36.82-36.54,0-20.58,14.84-36.54,36.26-36.54S223.17,65.1,223.17,84.28Zm-63.56-3.5h56.28c-1.54-17.08-13.58-26.6-27.3-26.6C172.63,54.18,161,65.24,159.61,80.78Z" transform="translate(0 -16)"/><path class="cls-2" d="M306.89,49v70h-7.14V103.18a33.66,33.66,0,0,1-30.1,17.36,36.54,36.54,0,0,1,0-73.08,33.66,33.66,0,0,1,30.1,17.36V49Zm-7.14,35c0-16.66-12.88-29.82-29.54-29.82a29.82,29.82,0,0,0,0,59.64C286.87,113.82,299.75,100.66,299.75,84Z" transform="translate(0 -16)"/><path class="cls-2" d="M427.29,74.62V119h-7V74.62c0-13.3-7.7-20.44-18.62-20.44-11.76,0-21,7.84-21,25.76V119h-7V74.62c0-13.3-7.14-20.44-17.92-20.44-11.48,0-21.7,7.84-21.7,25.76V119h-7V49h7V61c5.18-9.66,13.58-13.58,22.54-13.58,10.22,0,18.2,5,21.84,14.28a25.51,25.51,0,0,1,23.38-14.28C416.65,47.46,427.29,57.12,427.29,74.62Z" transform="translate(0 -16)"/></g><g class="cls-1"><path class="cls-2" d="M534,75.46V119h-7.14V75.46c0-12.88-7.42-21.28-20.58-21.28-13.72,0-24.5,9-24.5,27.86v37h-7V49h7V62.3C487.06,51.94,496,47.46,506.8,47.46,523.46,47.46,534,58.52,534,75.46Z" transform="translate(0 -16)"/><path class="cls-2" d="M621.46,49v66.64c0,21-15.54,32.9-34.86,32.9-16.38,0-28-6.58-33-16.8l6.16-3.5c3.64,7.42,11.48,13.58,26.88,13.58,17.5,0,27.86-10.22,27.86-26.18V102.76c-5.74,10.78-16.52,17.78-30.1,17.78A36.06,36.06,0,0,1,548.1,84a36.06,36.06,0,0,1,36.26-36.54c13.58,0,24.36,7,30.1,17.78V49Zm-7,35a29.68,29.68,0,1,0-29.68,29.82A29.46,29.46,0,0,0,614.46,84Z" transform="translate(0 -16)"/></g><g class="cls-1"><path class="cls-2" d="M14.15,222.44l6.44-3.78C24,230.42,33.89,238.4,50,238.4c16.38,0,24.64-8.4,24.64-19.6,0-11.76-10.36-16.24-25.34-21-16.38-5.32-31.08-9.94-31.08-27,0-16.1,13-26.32,29.68-26.32,16.1,0,26.74,9.24,31.5,20.58l-6.3,3.5c-3.64-8.82-11.2-16.94-25.2-16.94-13.58,0-22.12,8-22.12,18.9,0,11.76,9.94,15.4,23.94,20,17.36,5.74,32.48,11.2,32.48,28.14,0,16.24-12.74,26.88-32.2,26.88C31.65,245.54,18.63,236.3,14.15,222.44Z" transform="translate(0 -16)"/><path class="cls-2" d="M169.55,209a36.06,36.06,0,0,1-36.26,36.54c-13.58,0-24.36-7-30.1-17.78V272h-7V174h7v16.24c5.74-10.78,16.52-17.78,30.1-17.78A36.06,36.06,0,0,1,169.55,209Zm-7,0a29.68,29.68,0,1,0-29.68,29.82A29.46,29.46,0,0,0,162.55,209Z" transform="translate(0 -16)"/></g><g class="cls-1"><path class="cls-2" d="M245.85,173v6.72c-12,0-23.38,7.42-23.38,25.34V244h-7V174h7v13.72C227.23,176.66,236.33,173,245.85,173Z" transform="translate(0 -16)"/></g><g class="cls-1"><path class="cls-2" d="M319.77,209.28c0,1.12-.14,2.24-.14,3.36H256.21c1.68,15.82,13.72,26.18,29.68,26.18,11.48,0,20.16-5.32,24.22-12.74l6.16,3.64c-5.74,9.52-16.66,15.82-30.52,15.82-21.56,0-36.82-15.4-36.82-36.54,0-20.58,14.84-36.54,36.26-36.54S319.77,190.1,319.77,209.28Zm-63.56-3.5h56.28c-1.54-17.08-13.58-26.6-27.3-26.6C269.23,179.18,257.61,190.24,256.21,205.78Z" transform="translate(0 -16)"/></g><g class="cls-1"><path class="cls-2" d="M378.43,225.66c0,11.48-10.08,19.88-25.06,19.88-14,0-23.24-6.58-26.6-15.54l6-3.5c2.52,7.56,10.08,12.32,20.58,12.32,9.8,0,18.06-4.34,18.06-13.16,0-19-42.42-8.12-42.42-33.32,0-11.06,9.52-19.88,23.8-19.88,11.34,0,20,5.46,23.8,14l-5.88,3.36c-2.94-7.28-10.22-10.64-17.92-10.64-9.1,0-16.8,4.76-16.8,13.16C336,211.1,378.43,200,378.43,225.66Z" transform="translate(0 -16)"/></g></g><path class="cls-3" d="M452.13,30.17V267.44a9.07,9.07,0,0,1-9.07,9.07H200.9a9.07,9.07,0,0,1-9.07-9.07h0V150.65" transform="translate(0 -16)"/><circle class="cls-4" cx="191.83" cy="139.34" r="14.17"/><circle class="cls-4" cx="452.13" cy="14.17" r="14.17"/><rect class="cls-5" y="292.96" width="848.64" height="116.46"/><g class="cls-1"><g class="cls-1"><path class="cls-6" d="M20.53,322.81V319.9l18.58-7.35v3.2l-14.94,5.62,14.94,5.57v3.22Z" transform="translate(0 -16)"/><path class="cls-6" d="M43.57,306.4h7.77a9.81,9.81,0,0,1,6.21,1.74,6,6,0,0,1,2.18,4.94,7.16,7.16,0,0,1-.3,2.17,4.7,4.7,0,0,1-.85,1.6A4.55,4.55,0,0,1,57.16,318a6.19,6.19,0,0,1-2,.62,6.28,6.28,0,0,1,4.06,2.2,6.45,6.45,0,0,1,1.09,2.06,8.42,8.42,0,0,1,.37,2.6,6.36,6.36,0,0,1-2.34,5.36q-2.36,1.83-7,1.83H43.57Zm7.7,10.82a8.87,8.87,0,0,0,2.24-.24,3.75,3.75,0,0,0,1.49-.76,3.88,3.88,0,0,0,1.14-3.11,4.83,4.83,0,0,0-.28-1.77,2.8,2.8,0,0,0-.84-1.15,6.29,6.29,0,0,0-3.75-.88H47.14v7.91Zm.07,12.5a7,7,0,0,0,4.41-1.09,4.32,4.32,0,0,0,1.32-3.55,4.75,4.75,0,0,0-1.39-3.78,6.56,6.56,0,0,0-4.34-1.19h-4.2v9.61Z" transform="translate(0 -16)"/><path class="cls-6" d="M67.64,313h2.93l.32,3.85a6.77,6.77,0,0,1,2.49-3.22,7,7,0,0,1,4-1.1,8.16,8.16,0,0,1,2.25.3,7,7,0,0,1,1,.37,7.18,7.18,0,0,1,1,.56V317a7,7,0,0,0-2.11-1.18,7.56,7.56,0,0,0-2.38-.36,5.68,5.68,0,0,0-4.6,1.89,8.27,8.27,0,0,0-1.6,5.49v9.79H67.64Z" transform="translate(0 -16)"/><path class="cls-6" d="M99.1,332.78a6.86,6.86,0,0,1-2.52-.44,4.92,4.92,0,0,1-2-1.42,7.86,7.86,0,0,1-1.6-5.28V315.48H88.71V313h7.54v12.69a5.5,5.5,0,0,0,.81,3.29,2.44,2.44,0,0,0,1,.84,3.22,3.22,0,0,0,1.35.27h3.78v2.74Zm-5.91-23.4a.46.46,0,0,1-.52-.52v-3a.46.46,0,0,1,.52-.53h2.54a.46.46,0,0,1,.52.53v3a.46.46,0,0,1-.52.52Z" transform="translate(0 -16)"/><path class="cls-6" d="M109.1,313H112l.32,3a6,6,0,0,1,2.34-2.57,6.66,6.66,0,0,1,3.48-.86,6.42,6.42,0,0,1,2.69.51,4.72,4.72,0,0,1,1.82,1.46q1.48,2,1.48,6v12.2H120.9v-12.2a6.55,6.55,0,0,0-.93-3.9,3.43,3.43,0,0,0-2.94-1.25,4.65,4.65,0,0,0-2,.4,3.88,3.88,0,0,0-1.45,1.2,7.48,7.48,0,0,0-1.23,4.62v11.13H109.1Z" transform="translate(0 -16)"/><path class="cls-6" d="M137.91,340.37c-.45,0-.91,0-1.37-.06s-.93-.1-1.42-.18-1-.18-1.43-.3-1-.26-1.49-.42v-3.2c.57.27,1.13.5,1.66.7s1,.36,1.47.49a9.66,9.66,0,0,0,2.65.39,6.31,6.31,0,0,0,2.22-.35,3.74,3.74,0,0,0,1.53-1.09,6.94,6.94,0,0,0,1.19-4.5v-2.34a5.4,5.4,0,0,1-2.11,2.46,6.1,6.1,0,0,1-3.23.81,6.53,6.53,0,0,1-5.52-2.76,14.29,14.29,0,0,1,0-14.78,6.82,6.82,0,0,1,2.4-2.08,7,7,0,0,1,3.14-.68,7.73,7.73,0,0,1,1.71.18,5.91,5.91,0,0,1,1.47.57,5.61,5.61,0,0,1,2.14,2.34l.32-2.55h2.92v18.35c0,2.95-.7,5.18-2.09,6.72S140.63,340.37,137.91,340.37Zm.37-10.28a3.82,3.82,0,0,0,3.47-1.92,13.68,13.68,0,0,0,0-11.07,3.7,3.7,0,0,0-1.51-1.44,4.42,4.42,0,0,0-2-.44,4.07,4.07,0,0,0-3.61,1.88,10.13,10.13,0,0,0-1.25,5.56,10,10,0,0,0,1.27,5.51A4.05,4.05,0,0,0,138.28,330.09Z" transform="translate(0 -16)"/><path class="cls-6" d="M164.12,332.78a6.9,6.9,0,0,1-2.52-.44,5,5,0,0,1-2-1.42,7.86,7.86,0,0,1-1.6-5.28V315.48h-4.31V313h7.54v12.69a5.5,5.5,0,0,0,.81,3.29,2.44,2.44,0,0,0,1,.84,3.25,3.25,0,0,0,1.35.27h3.78v2.74Zm-5.9-23.4a.46.46,0,0,1-.53-.52v-3a.46.46,0,0,1,.53-.53h2.53a.46.46,0,0,1,.52.53v3a.46.46,0,0,1-.52.52Z" transform="translate(0 -16)"/><path class="cls-6" d="M174.12,313H177l.32,3a6,6,0,0,1,2.34-2.57,6.66,6.66,0,0,1,3.48-.86,6.42,6.42,0,0,1,2.69.51,4.72,4.72,0,0,1,1.82,1.46q1.49,2,1.48,6v12.2h-3.25v-12.2a6.55,6.55,0,0,0-.93-3.9,3.43,3.43,0,0,0-2.94-1.25,4.65,4.65,0,0,0-2,.4,3.88,3.88,0,0,0-1.45,1.2,7.48,7.48,0,0,0-1.23,4.62v11.13h-3.24Z" transform="translate(0 -16)"/><path class="cls-6" d="M202.94,340.37q-.69,0-1.38-.06c-.45,0-.93-.1-1.42-.18s-1-.18-1.43-.3-1-.26-1.49-.42v-3.2c.58.27,1.13.5,1.66.7s1,.36,1.47.49a9.73,9.73,0,0,0,2.66.39,6.29,6.29,0,0,0,2.21-.35,3.74,3.74,0,0,0,1.53-1.09,6.88,6.88,0,0,0,1.19-4.5v-2.34a5.44,5.44,0,0,1-2.1,2.46,6.16,6.16,0,0,1-3.24.81,6.53,6.53,0,0,1-5.52-2.76,14.29,14.29,0,0,1,0-14.78,6.82,6.82,0,0,1,2.4-2.08,7,7,0,0,1,3.14-.68,7.73,7.73,0,0,1,1.71.18,5.76,5.76,0,0,1,1.47.57,5.55,5.55,0,0,1,2.14,2.34l.32-2.55h2.92v18.35c0,2.95-.7,5.18-2.09,6.72S205.65,340.37,202.94,340.37Zm.36-10.28a3.82,3.82,0,0,0,3.47-1.92,13.68,13.68,0,0,0,0-11.07,3.64,3.64,0,0,0-1.51-1.44,4.42,4.42,0,0,0-2-.44,4.09,4.09,0,0,0-3.61,1.88,10.13,10.13,0,0,0-1.24,5.56,10,10,0,0,0,1.26,5.51A4.07,4.07,0,0,0,203.3,330.09Z" transform="translate(0 -16)"/><path class="cls-6" d="M239.06,313H242l.32,2.52a5.69,5.69,0,0,1,2.16-2.24,6.25,6.25,0,0,1,3.11-.75,7.23,7.23,0,0,1,3.17.68,6.55,6.55,0,0,1,2.42,2.08,9.5,9.5,0,0,1,1.52,3.29,16.76,16.76,0,0,1,.5,4.32c0,3.22-.67,5.74-2,7.56a6.59,6.59,0,0,1-5.59,2.74,6.83,6.83,0,0,1-1.74-.2,6.34,6.34,0,0,1-1.39-.57,5.42,5.42,0,0,1-2.13-2.22v10h-3.25Zm8,17.46a3.86,3.86,0,0,0,3.53-1.92,14.24,14.24,0,0,0,0-11.35,3.86,3.86,0,0,0-3.53-1.92,4,4,0,0,0-3.57,1.92,13.87,13.87,0,0,0,0,11.33A4,4,0,0,0,247.09,330.41Z" transform="translate(0 -16)"/><path class="cls-6" d="M262.7,313h2.94l.31,3.85a6.79,6.79,0,0,1,2.5-3.22,7,7,0,0,1,3.95-1.1,8.16,8.16,0,0,1,2.25.3,7,7,0,0,1,1,.37,6.62,6.62,0,0,1,1,.56V317a6.83,6.83,0,0,0-2.11-1.18,7.55,7.55,0,0,0-2.37-.36,5.7,5.7,0,0,0-4.61,1.89,8.32,8.32,0,0,0-1.6,5.49v9.79H262.7Z" transform="translate(0 -16)"/><path class="cls-6" d="M289.89,333.15a9.23,9.23,0,0,1-3.59-.66,6.77,6.77,0,0,1-2.66-2A8.87,8.87,0,0,1,282,327.2a16.9,16.9,0,0,1-.53-4.4q0-5,2.17-7.67a7.58,7.58,0,0,1,6.25-2.65,9.18,9.18,0,0,1,3.67.67,6.82,6.82,0,0,1,2.61,2q2.16,2.67,2.16,7.65a17.21,17.21,0,0,1-.53,4.46,8.66,8.66,0,0,1-1.63,3.27,6.6,6.6,0,0,1-2.63,2A9.18,9.18,0,0,1,289.89,333.15Zm0-2.74a4.2,4.2,0,0,0,3.75-1.94,13.37,13.37,0,0,0,0-11.33,4.59,4.59,0,0,0-7.47,0,13.27,13.27,0,0,0,0,11.33A4.16,4.16,0,0,0,289.89,330.41Z" transform="translate(0 -16)"/><path class="cls-6" d="M311.3,340.37c-.45,0-.91,0-1.37-.06s-.93-.1-1.42-.18-1-.18-1.43-.3-1-.26-1.49-.42v-3.2c.58.27,1.13.5,1.66.7s1,.36,1.47.49a9.66,9.66,0,0,0,2.65.39,6.31,6.31,0,0,0,2.22-.35,3.74,3.74,0,0,0,1.53-1.09,6.88,6.88,0,0,0,1.19-4.5v-2.34A5.4,5.4,0,0,1,314.2,332a6.1,6.1,0,0,1-3.23.81,6.53,6.53,0,0,1-5.52-2.76,14.29,14.29,0,0,1,0-14.78,6.82,6.82,0,0,1,2.4-2.08,7,7,0,0,1,3.14-.68,7.73,7.73,0,0,1,1.71.18,5.91,5.91,0,0,1,1.47.57,5.61,5.61,0,0,1,2.14,2.34l.32-2.55h2.92v18.35c0,2.95-.7,5.18-2.09,6.72S314,340.37,311.3,340.37Zm.37-10.28a3.82,3.82,0,0,0,3.47-1.92,13.68,13.68,0,0,0,0-11.07,3.64,3.64,0,0,0-1.51-1.44,4.42,4.42,0,0,0-2-.44,4.08,4.08,0,0,0-3.61,1.88,10.13,10.13,0,0,0-1.25,5.56,10,10,0,0,0,1.27,5.51A4.05,4.05,0,0,0,311.67,330.09Z" transform="translate(0 -16)"/><path class="cls-6" d="M327.72,313h2.94l.31,3.85a6.79,6.79,0,0,1,2.5-3.22,7,7,0,0,1,4-1.1,8.26,8.26,0,0,1,2.25.3,6.85,6.85,0,0,1,1,.37,6.62,6.62,0,0,1,1,.56V317a6.83,6.83,0,0,0-2.11-1.18,7.5,7.5,0,0,0-2.37-.36,5.72,5.72,0,0,0-4.61,1.89,8.32,8.32,0,0,0-1.6,5.49v9.79h-3.25Z" transform="translate(0 -16)"/><path class="cls-6" d="M353.1,333.15a6.67,6.67,0,0,1-4.83-1.71,5.79,5.79,0,0,1-1.32-1.9,6.82,6.82,0,0,1-.47-2.65,5.93,5.93,0,0,1,2.21-5c1.46-1.14,3.61-1.71,6.47-1.71h4.34v-.51a6.14,6.14,0,0,0-.3-2,3.26,3.26,0,0,0-.89-1.43,3.82,3.82,0,0,0-1.53-.79,8.56,8.56,0,0,0-2.22-.26,12.54,12.54,0,0,0-3.35.47,14.13,14.13,0,0,0-3.29,1.39v-3.23c.49-.19,1-.38,1.63-.56s1.21-.35,1.81-.48a15.92,15.92,0,0,1,3.22-.33,13.14,13.14,0,0,1,2.27.18,9.33,9.33,0,0,1,1.9.56,8.15,8.15,0,0,1,1.54.88,5.56,5.56,0,0,1,1.23,1.24,4.78,4.78,0,0,1,.6,1.08,7,7,0,0,1,.35,1.1,19.4,19.4,0,0,1,.29,3.89v4c0,.68,0,1.28.05,1.8a12.85,12.85,0,0,0,.1,1.44c.06.49.13.95.21,1.39s.14.76.2,1a9.63,9.63,0,0,0,.28,1c.1.32.17.51.19.57h-3.25c-.06-.14-.13-.35-.22-.62s-.17-.58-.25-.91-.12-.52-.17-.78-.09-.49-.12-.68a6.08,6.08,0,0,1-1.3,1.57,9,9,0,0,1-1.58,1.09,7.42,7.42,0,0,1-1.78.64A10,10,0,0,1,353.1,333.15Zm.67-2.71a5.14,5.14,0,0,0,4.19-1.86,7.88,7.88,0,0,0,1.54-5.12v-.72h-4.09a7.53,7.53,0,0,0-4.26,1,3,3,0,0,0-1.09,1.25,4.12,4.12,0,0,0-.35,1.74,4.26,4.26,0,0,0,.28,1.59,3.33,3.33,0,0,0,.79,1.15,4,4,0,0,0,1.24.72A5.33,5.33,0,0,0,353.77,330.44Z" transform="translate(0 -16)"/><path class="cls-6" d="M367.68,313h2.65l.28,1.69a4.52,4.52,0,0,1,1.46-1.62,3.69,3.69,0,0,1,2-.54,3.85,3.85,0,0,1,2.21.61,4,4,0,0,1,1.37,1.87,4.4,4.4,0,0,1,1.53-1.88,4,4,0,0,1,2.22-.6,4.17,4.17,0,0,1,2.05.46,3.16,3.16,0,0,1,1.31,1.37q1,1.81,1,6.92v11.41h-2.95V321.37c0-.75,0-1.4,0-2s0-1-.08-1.46-.1-.77-.15-1.06a2.67,2.67,0,0,0-.22-.69,1.52,1.52,0,0,0-.59-.73,2.05,2.05,0,0,0-1.15-.28,2.26,2.26,0,0,0-1.12.26,1.67,1.67,0,0,0-.72.82,5.54,5.54,0,0,0-.42,1.82,31.37,31.37,0,0,0-.13,3.29v11.27H375.2V321.37c0-.85,0-1.58,0-2.17s-.06-1.09-.11-1.48a6.57,6.57,0,0,0-.17-1,3.35,3.35,0,0,0-.2-.59,1.64,1.64,0,0,0-.66-.72,2.07,2.07,0,0,0-1.11-.27,2,2,0,0,0-1.16.29,1.88,1.88,0,0,0-.62.77,3.5,3.5,0,0,0-.22.67c-.06.27-.12.6-.17,1s-.08.89-.1,1.45,0,1.23,0,2v11.27h-2.93Z" transform="translate(0 -16)"/><path class="cls-6" d="M389.35,313H392l.28,1.69a4.35,4.35,0,0,1,1.46-1.62,3.63,3.63,0,0,1,2-.54,3.89,3.89,0,0,1,2.22.61,4,4,0,0,1,1.37,1.87,4.4,4.4,0,0,1,1.53-1.88,3.93,3.93,0,0,1,2.21-.6,4.21,4.21,0,0,1,2.06.46,3.19,3.19,0,0,1,1.3,1.37c.64,1.21,1,3.52,1,6.92v11.41h-3V321.37c0-.75,0-1.4,0-2s-.05-1-.09-1.46a10,10,0,0,0-.15-1.06,3.18,3.18,0,0,0-.21-.69,1.6,1.6,0,0,0-.6-.73,2,2,0,0,0-1.14-.28,2.3,2.3,0,0,0-1.13.26,1.77,1.77,0,0,0-.72.82,5.54,5.54,0,0,0-.42,1.82c-.08.8-.12,1.9-.12,3.29v11.27h-3V321.37c0-.85,0-1.58,0-2.17s-.06-1.09-.11-1.48a6.77,6.77,0,0,0-.16-1,3.28,3.28,0,0,0-.21-.59,1.68,1.68,0,0,0-.65-.72,2.09,2.09,0,0,0-1.12-.27,2,2,0,0,0-1.15.29,1.82,1.82,0,0,0-.63.77,4.38,4.38,0,0,0-.22.67,8.29,8.29,0,0,0-.16,1c-.05.4-.08.89-.11,1.45s0,1.23,0,2v11.27h-2.94Z" transform="translate(0 -16)"/><path class="cls-6" d="M424.21,332.78a6.86,6.86,0,0,1-2.52-.44,4.92,4.92,0,0,1-2-1.42,7.86,7.86,0,0,1-1.6-5.28V315.48h-4.31V313h7.54v12.69a5.5,5.5,0,0,0,.81,3.29,2.44,2.44,0,0,0,1,.84,3.18,3.18,0,0,0,1.34.27h3.78v2.74Zm-5.91-23.4a.46.46,0,0,1-.53-.52v-3a.47.47,0,0,1,.53-.53h2.53a.46.46,0,0,1,.53.53v3a.46.46,0,0,1-.53.52Z" transform="translate(0 -16)"/><path class="cls-6" d="M434.21,313h2.92l.32,3a6.09,6.09,0,0,1,2.33-2.57,6.7,6.7,0,0,1,3.48-.86A6.39,6.39,0,0,1,446,313a4.68,4.68,0,0,1,1.83,1.46q1.49,2,1.48,6v12.2H446v-12.2a6.47,6.47,0,0,0-.94-3.9,3.42,3.42,0,0,0-2.93-1.25,4.62,4.62,0,0,0-2,.4,3.81,3.81,0,0,0-1.45,1.2,7.48,7.48,0,0,0-1.23,4.62v11.13h-3.24Z" transform="translate(0 -16)"/><path class="cls-6" d="M463,340.37c-.46,0-.91,0-1.37-.06s-.93-.1-1.42-.18-1-.18-1.44-.3-1-.26-1.48-.42v-3.2c.57.27,1.13.5,1.66.7s1,.36,1.47.49a9.66,9.66,0,0,0,2.65.39,6.31,6.31,0,0,0,2.22-.35,3.74,3.74,0,0,0,1.53-1.09,6.94,6.94,0,0,0,1.19-4.5v-2.34a5.46,5.46,0,0,1-2.11,2.46,6.12,6.12,0,0,1-3.23.81,6.53,6.53,0,0,1-5.52-2.76,14.29,14.29,0,0,1,0-14.78,6.82,6.82,0,0,1,2.4-2.08,7,7,0,0,1,3.14-.68,7.8,7.8,0,0,1,1.71.18,5.91,5.91,0,0,1,1.47.57,5.61,5.61,0,0,1,2.14,2.34l.32-2.55h2.92v18.35c0,2.95-.7,5.18-2.1,6.72S465.74,340.37,463,340.37Zm.37-10.28a3.81,3.81,0,0,0,3.46-1.92,13.57,13.57,0,0,0,0-11.07,3.68,3.68,0,0,0-1.5-1.44,4.43,4.43,0,0,0-2-.44,4.06,4.06,0,0,0-3.6,1.88,10.13,10.13,0,0,0-1.25,5.56,9.91,9.91,0,0,0,1.27,5.51A4.05,4.05,0,0,0,463.39,330.09Z" transform="translate(0 -16)"/><path class="cls-6" d="M504.86,331.25q-1.5-1.44-1.5-5V315.47h-5.25V313h5.25V307.8l3.24-1.4V313H514v2.52H506.6v10.75a4.39,4.39,0,0,0,.82,3,3.85,3.85,0,0,0,2.89.87H514v2.58h-4Q506.38,332.71,504.86,331.25Z" transform="translate(0 -16)"/><path class="cls-6" d="M526.5,333.15a6.7,6.7,0,0,1-4.84-1.71,5.79,5.79,0,0,1-1.32-1.9,6.82,6.82,0,0,1-.47-2.65,5.93,5.93,0,0,1,2.21-5c1.46-1.14,3.61-1.71,6.47-1.71h4.34v-.51a6.43,6.43,0,0,0-.29-2,3.37,3.37,0,0,0-.9-1.43,3.82,3.82,0,0,0-1.53-.79,8.54,8.54,0,0,0-2.21-.26,12.55,12.55,0,0,0-3.36.47,14.31,14.31,0,0,0-3.29,1.39v-3.23c.49-.19,1-.38,1.64-.56a18.53,18.53,0,0,1,1.81-.48,15.75,15.75,0,0,1,3.21-.33,13.14,13.14,0,0,1,2.27.18,9.33,9.33,0,0,1,1.9.56,8.15,8.15,0,0,1,1.54.88,5.83,5.83,0,0,1,1.24,1.24,5.16,5.16,0,0,1,.59,1.08,7.05,7.05,0,0,1,.36,1.1,20.36,20.36,0,0,1,.28,3.89v4c0,.68,0,1.28.05,1.8s0,1,.1,1.44.13.95.21,1.39.14.76.2,1a9.63,9.63,0,0,0,.28,1c.11.32.17.51.19.57h-3.25c-.06-.14-.13-.35-.22-.62s-.17-.58-.25-.91-.12-.52-.17-.78-.09-.49-.11-.68a6.12,6.12,0,0,1-1.31,1.57,9,9,0,0,1-1.58,1.09,7.27,7.27,0,0,1-1.78.64A9.93,9.93,0,0,1,526.5,333.15Zm.66-2.71a5.14,5.14,0,0,0,4.19-1.86,7.88,7.88,0,0,0,1.54-5.12v-.72H528.8a7.56,7.56,0,0,0-4.26,1,3,3,0,0,0-1.09,1.25,4.12,4.12,0,0,0-.35,1.74,4.26,4.26,0,0,0,.28,1.59,3.35,3.35,0,0,0,.8,1.15,3.86,3.86,0,0,0,1.24.72A5.23,5.23,0,0,0,527.16,330.44Z" transform="translate(0 -16)"/><path class="cls-6" d="M551.06,332.34a5,5,0,0,1-2-1.42,7.91,7.91,0,0,1-1.6-5.28V307.82h-5.18v-2.53h8.42v20.35a5.58,5.58,0,0,0,.8,3.29,2.47,2.47,0,0,0,1,.84,3.18,3.18,0,0,0,1.34.27h3.78v2.74h-4.1A6.94,6.94,0,0,1,551.06,332.34Z" transform="translate(0 -16)"/><path class="cls-6" d="M572.73,333.15a11.28,11.28,0,0,1-4.07-.69,8.25,8.25,0,0,1-3.07-2,9,9,0,0,1-1.92-3.26,14.57,14.57,0,0,1,0-8.67,9.53,9.53,0,0,1,1.85-3.19,8.07,8.07,0,0,1,3-2.12,9.82,9.82,0,0,1,3.7-.69,8.44,8.44,0,0,1,3.46.65,6.94,6.94,0,0,1,2.54,1.88,8.45,8.45,0,0,1,1.61,3,13.2,13.2,0,0,1,.55,4v1.58h-14v.1a6.88,6.88,0,0,0,1.69,5,5.43,5.43,0,0,0,2,1.3,7.54,7.54,0,0,0,2.75.46,11.6,11.6,0,0,0,3.25-.49,20.35,20.35,0,0,0,3.6-1.5v3.22c-.62.26-1.22.48-1.81.67s-1.16.34-1.74.47a14,14,0,0,1-1.68.28A15.86,15.86,0,0,1,572.73,333.15ZM577.16,321a9.09,9.09,0,0,0-.4-2.59,4.91,4.91,0,0,0-.94-1.75,3.79,3.79,0,0,0-1.56-1.11,5.61,5.61,0,0,0-2.1-.37,5.12,5.12,0,0,0-3.86,1.55,7,7,0,0,0-1.8,4.29Z" transform="translate(0 -16)"/><path class="cls-6" d="M585.93,313h2.92l.31,3a6.18,6.18,0,0,1,2.34-2.57,6.66,6.66,0,0,1,3.48-.86,6.39,6.39,0,0,1,2.69.51,4.68,4.68,0,0,1,1.83,1.46q1.47,2,1.47,6v12.2h-3.25v-12.2a6.55,6.55,0,0,0-.93-3.9,3.42,3.42,0,0,0-2.93-1.25,4.67,4.67,0,0,0-2,.4,3.88,3.88,0,0,0-1.45,1.2,7.48,7.48,0,0,0-1.23,4.62v11.13h-3.23Z" transform="translate(0 -16)"/><path class="cls-6" d="M613.23,331.25q-1.5-1.44-1.5-5V315.47h-5.25V313h5.25V307.8l3.24-1.4V313h7.34v2.52H615v10.75a4.39,4.39,0,0,0,.82,3,3.85,3.85,0,0,0,2.89.87h3.63v2.58h-3.95C616,332.71,614.23,332.22,613.23,331.25Z" transform="translate(0 -16)"/></g><g class="cls-1"><path class="cls-6" d="M265.71,391.25q-1.5-1.44-1.5-5V375.47H259V373h5.25V367.8l3.24-1.4V373h7.34v2.52h-7.34v10.75a4.39,4.39,0,0,0,.82,3,3.85,3.85,0,0,0,2.89.87h3.63v2.58h-4C268.43,392.71,266.71,392.22,265.71,391.25Z" transform="translate(0 -16)"/><path class="cls-6" d="M289.16,393.15a9.24,9.24,0,0,1-3.6-.66,6.77,6.77,0,0,1-2.66-2,8.87,8.87,0,0,1-1.64-3.31,16.92,16.92,0,0,1-.52-4.4q0-5,2.16-7.67a7.6,7.6,0,0,1,6.26-2.65,9.16,9.16,0,0,1,3.66.67,6.82,6.82,0,0,1,2.61,2q2.16,2.67,2.16,7.65a17.21,17.21,0,0,1-.53,4.46,8.66,8.66,0,0,1-1.63,3.27,6.6,6.6,0,0,1-2.63,2A9.16,9.16,0,0,1,289.16,393.15Zm0-2.74a4.18,4.18,0,0,0,3.74-1.94,13.27,13.27,0,0,0,0-11.33,4.59,4.59,0,0,0-7.47,0,13.27,13.27,0,0,0,0,11.33A4.18,4.18,0,0,0,289.16,390.41Z" transform="translate(0 -16)"/><path class="cls-6" d="M324.91,397.42h1.92a3.29,3.29,0,0,0,1.33-.24,2.76,2.76,0,0,0,.9-.59,5.79,5.79,0,0,0,.88-1.38,27,27,0,0,0,1.17-2.89L323.5,373h3.43l5.84,15.4,5.75-15.4h3.42l-5.18,13.36c-.28.73-.5,1.29-.66,1.69l-.37.94c-.09.23-.16.4-.2.53s-.1.26-.16.43l-.24.65-.43,1.18c-.35.94-.65,1.74-.9,2.39s-.48,1.18-.66,1.6-.35.77-.47,1-.23.46-.31.61a6.72,6.72,0,0,1-.86,1.19,4.65,4.65,0,0,1-1.16.9,5.62,5.62,0,0,1-2.83.69h-2.6Z" transform="translate(0 -16)"/><path class="cls-6" d="M354.18,393.15a9.24,9.24,0,0,1-3.6-.66,6.84,6.84,0,0,1-2.66-2,9,9,0,0,1-1.64-3.31,16.92,16.92,0,0,1-.52-4.4q0-5,2.16-7.67a7.6,7.6,0,0,1,6.26-2.65,9.13,9.13,0,0,1,3.66.67,6.82,6.82,0,0,1,2.61,2q2.16,2.67,2.16,7.65a16.79,16.79,0,0,1-.53,4.46,8.66,8.66,0,0,1-1.63,3.27,6.6,6.6,0,0,1-2.63,2A9.13,9.13,0,0,1,354.18,393.15Zm0-2.74a4.18,4.18,0,0,0,3.74-1.94,13.27,13.27,0,0,0,0-11.33,4.59,4.59,0,0,0-7.47,0,13.37,13.37,0,0,0,0,11.33A4.18,4.18,0,0,0,354.18,390.41Z" transform="translate(0 -16)"/><path class="cls-6" d="M374.41,393.15a5.21,5.21,0,0,1-4.48-2q-1.49-2-1.48-6V373h3.24v12.2a6.43,6.43,0,0,0,.94,3.9,3.08,3.08,0,0,0,1.16.92,4,4,0,0,0,1.74.33,4.1,4.1,0,0,0,3.5-1.62,7.51,7.51,0,0,0,1.22-4.61V373h3.25v19.65h-2.94l-.31-2.95a6.2,6.2,0,0,1-2.34,2.58A6.74,6.74,0,0,1,374.41,393.15Z" transform="translate(0 -16)"/><path class="cls-6" d="M392,373h2.93l.32,3.85a6.77,6.77,0,0,1,2.49-3.22,7,7,0,0,1,4-1.1,8.16,8.16,0,0,1,2.25.3,7,7,0,0,1,1,.37,6.51,6.51,0,0,1,1,.56V377a6.79,6.79,0,0,0-2.1-1.18,7.56,7.56,0,0,0-2.38-.36,5.68,5.68,0,0,0-4.6,1.89,8.27,8.27,0,0,0-1.6,5.49v9.79H392Z" transform="translate(0 -16)"/><path class="cls-6" d="M435.35,373h2.94l.32,3.85a6.77,6.77,0,0,1,2.49-3.22,7,7,0,0,1,4-1.1,8.26,8.26,0,0,1,2.25.3,7,7,0,0,1,1,.37,6.51,6.51,0,0,1,1,.56V377a6.72,6.72,0,0,0-2.11-1.18,7.46,7.46,0,0,0-2.37-.36,5.68,5.68,0,0,0-4.6,1.89,8.27,8.27,0,0,0-1.6,5.49v9.79h-3.26Z" transform="translate(0 -16)"/><path class="cls-6" d="M463.62,393.15a11.32,11.32,0,0,1-4.07-.69,8.33,8.33,0,0,1-3.07-2,9.14,9.14,0,0,1-1.92-3.26,13.15,13.15,0,0,1-.66-4.32,12.83,12.83,0,0,1,.67-4.35,9.51,9.51,0,0,1,1.84-3.19,8.07,8.07,0,0,1,3-2.12,9.87,9.87,0,0,1,3.71-.69,8.43,8.43,0,0,1,3.45.65,6.94,6.94,0,0,1,2.54,1.88,8.45,8.45,0,0,1,1.61,3,13.2,13.2,0,0,1,.55,4v1.58h-14v.1a6.92,6.92,0,0,0,1.69,5,5.43,5.43,0,0,0,2,1.3,7.57,7.57,0,0,0,2.75.46,11.6,11.6,0,0,0,3.25-.49,20.74,20.74,0,0,0,3.61-1.5v3.22c-.62.26-1.23.48-1.81.67s-1.17.34-1.74.47a14.52,14.52,0,0,1-1.69.28A15.71,15.71,0,0,1,463.62,393.15ZM468.05,381a8.75,8.75,0,0,0-.4-2.59,4.91,4.91,0,0,0-.94-1.75,3.79,3.79,0,0,0-1.56-1.11,5.56,5.56,0,0,0-2.09-.37,5.14,5.14,0,0,0-3.87,1.55,6.93,6.93,0,0,0-1.79,4.29Z" transform="translate(0 -16)"/><path class="cls-6" d="M483.76,393.15c-.51,0-1,0-1.59-.08s-1.07-.13-1.57-.22-1-.22-1.61-.39-1.23-.34-1.85-.54v-3.34c.75.37,1.39.66,1.91.87s1.05.38,1.55.52a14.31,14.31,0,0,0,1.56.35,10.09,10.09,0,0,0,1.57.12,5.48,5.48,0,0,0,3.32-.88,2.77,2.77,0,0,0,.9-1.07,3.07,3.07,0,0,0,.28-1.25,2.37,2.37,0,0,0-1-2,8.44,8.44,0,0,0-3.27-1.22l-.14,0-1.21-.24a12.54,12.54,0,0,1-2.35-.71,5.43,5.43,0,0,1-1.73-1.14,4.75,4.75,0,0,1-1.28-3.53,6.22,6.22,0,0,1,.48-2.52,4.84,4.84,0,0,1,1.43-1.84,6.29,6.29,0,0,1,2.39-1.17,12.5,12.5,0,0,1,3.12-.36c.5,0,1,0,1.51.07a14.84,14.84,0,0,1,1.49.21c.45.09.91.21,1.4.36s1,.32,1.47.52v3.16a12.75,12.75,0,0,0-2.8-1.21,11.81,11.81,0,0,0-1.41-.3,10.55,10.55,0,0,0-1.52-.11,8.56,8.56,0,0,0-1.84.18,3.94,3.94,0,0,0-1.36.53,2.44,2.44,0,0,0-1.09,2.19,2.92,2.92,0,0,0,.2,1.13,1.9,1.9,0,0,0,.61.83,4.33,4.33,0,0,0,1.34.62,21.9,21.9,0,0,0,2.68.64l1.3.25a8.06,8.06,0,0,1,2.16.7A4.86,4.86,0,0,1,491.5,387a6,6,0,0,1-.54,2.63,5.45,5.45,0,0,1-1.54,1.91,7.17,7.17,0,0,1-2.5,1.25A12,12,0,0,1,483.76,393.15Z" transform="translate(0 -16)"/><path class="cls-6" d="M507,393.15a11.32,11.32,0,0,1-4.07-.69,8.25,8.25,0,0,1-3.07-2,9.16,9.16,0,0,1-1.93-3.26,14.67,14.67,0,0,1,0-8.67,9.53,9.53,0,0,1,1.85-3.19,8.07,8.07,0,0,1,3-2.12,9.82,9.82,0,0,1,3.7-.69,8.44,8.44,0,0,1,3.46.65,6.94,6.94,0,0,1,2.54,1.88,8.45,8.45,0,0,1,1.61,3,13.2,13.2,0,0,1,.55,4v1.58h-14v.1a6.88,6.88,0,0,0,1.69,5,5.43,5.43,0,0,0,2,1.3,7.54,7.54,0,0,0,2.75.46,11.6,11.6,0,0,0,3.25-.49,20.74,20.74,0,0,0,3.61-1.5v3.22c-.63.26-1.23.48-1.82.67s-1.16.34-1.74.47a14,14,0,0,1-1.68.28A15.86,15.86,0,0,1,507,393.15ZM511.4,381a9.09,9.09,0,0,0-.4-2.59,4.91,4.91,0,0,0-.94-1.75,3.79,3.79,0,0,0-1.56-1.11,5.57,5.57,0,0,0-2.1-.37,5.12,5.12,0,0,0-3.86,1.55,7,7,0,0,0-1.8,4.29Z" transform="translate(0 -16)"/><path class="cls-6" d="M525.76,393.15a6.7,6.7,0,0,1-4.84-1.71,5.62,5.62,0,0,1-1.31-1.9,6.64,6.64,0,0,1-.48-2.65,5.91,5.91,0,0,1,2.22-5c1.45-1.14,3.61-1.71,6.46-1.71h4.35v-.51a6.14,6.14,0,0,0-.3-2,3.37,3.37,0,0,0-.9-1.43,3.82,3.82,0,0,0-1.53-.79,8.54,8.54,0,0,0-2.21-.26,12.55,12.55,0,0,0-3.36.47,14.31,14.31,0,0,0-3.29,1.39v-3.23c.49-.19,1-.38,1.64-.56a18.53,18.53,0,0,1,1.81-.48,15.83,15.83,0,0,1,3.21-.33,13.06,13.06,0,0,1,2.27.18,9.33,9.33,0,0,1,1.9.56,8.15,8.15,0,0,1,1.54.88,5.83,5.83,0,0,1,1.24,1.24,5.71,5.71,0,0,1,.6,1.08,8.21,8.21,0,0,1,.35,1.1,20.36,20.36,0,0,1,.28,3.89v4c0,.68,0,1.28.05,1.8a12.77,12.77,0,0,0,.11,1.44c.06.49.12.95.2,1.39s.14.76.2,1,.18.71.28,1,.17.51.2.57h-3.26c-.06-.14-.13-.35-.22-.62s-.17-.58-.25-.91-.12-.52-.17-.78-.09-.49-.11-.68a6.12,6.12,0,0,1-1.31,1.57,9,9,0,0,1-1.58,1.09,7.27,7.27,0,0,1-1.78.64A9.93,9.93,0,0,1,525.76,393.15Zm.67-2.71a5.12,5.12,0,0,0,4.18-1.86,7.88,7.88,0,0,0,1.55-5.12v-.72h-4.1a7.52,7.52,0,0,0-4.25,1,3,3,0,0,0-1.1,1.25,4.13,4.13,0,0,0-.34,1.74,4.07,4.07,0,0,0,.28,1.59,3.2,3.2,0,0,0,.79,1.15,3.86,3.86,0,0,0,1.24.72A5.29,5.29,0,0,0,526.43,390.44Z" transform="translate(0 -16)"/><path class="cls-6" d="M543.72,373h2.94l.31,3.85a6.85,6.85,0,0,1,2.5-3.22,7,7,0,0,1,4-1.1,8.26,8.26,0,0,1,2.25.3,7,7,0,0,1,1,.37,6.51,6.51,0,0,1,1,.56V377a6.83,6.83,0,0,0-2.11-1.18,7.46,7.46,0,0,0-2.37-.36,5.72,5.72,0,0,0-4.61,1.89,8.32,8.32,0,0,0-1.6,5.49v9.79h-3.25Z" transform="translate(0 -16)"/><path class="cls-6" d="M572.6,393.15a11.12,11.12,0,0,1-4-.69,8.21,8.21,0,0,1-3.06-2,8.91,8.91,0,0,1-1.93-3.28,13.44,13.44,0,0,1-.64-4.32,13.18,13.18,0,0,1,.68-4.41,9,9,0,0,1,1.9-3.2,8.41,8.41,0,0,1,3.09-2.05,11.19,11.19,0,0,1,4-.67,11.63,11.63,0,0,1,1.5.09,8.1,8.1,0,0,1,1.35.28,11.79,11.79,0,0,1,2.72,1.14v3.39a13.25,13.25,0,0,0-1.28-1,6.29,6.29,0,0,0-1.28-.67,8,8,0,0,0-2.92-.51,5.76,5.76,0,0,0-4.69,2,8.59,8.59,0,0,0-1.64,5.61,12.35,12.35,0,0,0,.38,3.12,6.22,6.22,0,0,0,1.26,2.5,5.8,5.8,0,0,0,4.74,2,8.86,8.86,0,0,0,1.61-.14,8.13,8.13,0,0,0,1.34-.39,6.48,6.48,0,0,0,1.37-.69,10.29,10.29,0,0,0,1.11-.91v3.36a12.12,12.12,0,0,1-1.3.65,11.93,11.93,0,0,1-1.37.49,8.58,8.58,0,0,1-1.34.27A11.15,11.15,0,0,1,572.6,393.15Z" transform="translate(0 -16)"/><path class="cls-6" d="M585.19,365.29h3.23v10.62a6.18,6.18,0,0,1,2.34-2.57,6.66,6.66,0,0,1,3.48-.86,6.39,6.39,0,0,1,2.69.51,4.68,4.68,0,0,1,1.83,1.46c1,1.32,1.48,3.32,1.48,6v12.2H597v-12.2a6.55,6.55,0,0,0-.93-3.9,3.42,3.42,0,0,0-2.93-1.25,4.67,4.67,0,0,0-2,.4,4,4,0,0,0-1.45,1.2,7.48,7.48,0,0,0-1.23,4.62v11.13h-3.23Z" transform="translate(0 -16)"/><path class="cls-6" d="M619.06,366.4h3.34L608.59,396h-3.36Z" transform="translate(0 -16)"/><path class="cls-6" d="M626.66,386.94l14.94-5.57-14.94-5.62v-3.2l18.58,7.35v2.91l-18.58,7.35Z" transform="translate(0 -16)"/></g></g><path class="cls-7" d="M648,322.7l21.06.39a3,3,0,0,1,2.94,3v24a3,3,0,0,1-3,3l-455.27,1.08a4,4,0,0,0-4,4v20.53a3,3,0,0,0,2.86,2.94l21.14.6" transform="translate(0 -16)"/><circle class="cls-2" cx="649.96" cy="306.69" r="8.5"/><circle class="cls-2" cx="231.87" cy="366.17" r="8.5"/></svg>