<svg id="Layer_1" data-name="Layer 1" xmlns="http://www.w3.org/2000/svg" viewBox="0 0 658.75 387.51"><defs><style>.cls-1{fill:#fff;}.cls-2,.cls-5{fill:none;stroke:#65c8d0;stroke-miterlimit:10;}.cls-2{stroke-width:8px;}.cls-3{fill:#65c8d0;}.cls-4{fill:#00687f;}.cls-5{stroke-width:7px;}</style></defs><title>extended_dark_logo</title><path class="cls-1" d="M88.9,54c0,27-19.2,49-46.2,49H5.88V5H42.7C69.7,5,88.9,27,88.9,54Zm-7.28,0c0-23.24-15.82-42-38.92-42H13.3V96H42.7C65.8,96,81.62,77.24,81.62,54Z"/><path class="cls-1" d="M134.82,32v6.72c-12,0-23.38,7.42-23.38,25.34V103h-7V33h7V46.72C116.2,35.66,125.3,32,134.82,32Z"/><path class="cls-1" d="M209,68.28c0,1.12-.14,2.24-.14,3.36H145.46c1.68,15.82,13.72,26.18,29.68,26.18,11.48,0,20.16-5.32,24.22-12.74l6.16,3.64c-5.74,9.52-16.66,15.82-30.52,15.82-21.56,0-36.82-15.4-36.82-36.54,0-20.58,14.84-36.54,36.26-36.54S209,49.1,209,68.28Zm-63.56-3.5H201.7c-1.54-17.08-13.58-26.6-27.3-26.6-15.92,0-27.54,11.06-28.94,26.6Z"/><path class="cls-1" d="M292.7,33v70h-7.1V87.18a33.65,33.65,0,0,1-30.1,17.36,36.54,36.54,0,1,1,0-73.08,33.65,33.65,0,0,1,30.1,17.36V33Zm-7.1,35c0-16.66-12.88-29.82-29.54-29.82a29.82,29.82,0,1,0,0,59.64C272.7,97.82,285.6,84.66,285.6,68Z"/><path class="cls-1" d="M413.14,58.62V103h-7V58.62c0-13.3-7.7-20.44-18.62-20.44-11.76,0-21,7.84-21,25.76V103h-7V58.62c0-13.3-7.14-20.44-17.92-20.44-11.48,0-21.7,7.84-21.7,25.76V103h-7V33h7V45c5.18-9.66,13.58-13.58,22.54-13.58,10.22,0,18.2,5,21.84,14.28A25.51,25.51,0,0,1,387.7,31.46C402.5,31.46,413.14,41.12,413.14,58.62Z"/><path class="cls-1" d="M519.81,59.46V103H512.7V59.46c0-12.88-7.42-21.28-20.58-21.28-13.72,0-24.5,9-24.5,27.86v37h-7V33h7V46.3c5.32-10.36,14.28-14.84,25.06-14.84C509.31,31.46,519.81,42.52,519.81,59.46Z"/><path class="cls-1" d="M607.31,33V99.64c0,21-15.54,32.9-34.86,32.9-16.38,0-28-6.58-33-16.8l6.16-3.5c3.64,7.42,11.48,13.58,26.88,13.58,17.5,0,27.86-10.22,27.86-26.18V86.76c-5.74,10.78-16.52,17.78-30.1,17.78A36.06,36.06,0,0,1,534,68.72V68a36.06,36.06,0,0,1,35.58-36.54h.68c13.58,0,24.36,7,30.1,17.78V33Zm-7,35a29.53,29.53,0,1,0,0,.58Z"/><path class="cls-1" d="M0,206.44l6.44-3.78C9.8,214.42,19.7,222.4,35.84,222.4c16.38,0,24.64-8.4,24.64-19.6,0-11.76-10.36-16.24-25.34-21-16.38-5.32-31.08-9.94-31.08-27,0-16.1,13-26.32,29.68-26.32,16.1,0,26.74,9.24,31.5,20.58l-6.3,3.5c-3.64-8.84-11.24-17-25.24-17-13.58,0-22.12,8-22.12,18.9,0,11.76,9.94,15.4,23.94,20C52.88,180.24,68,185.7,68,202.64c0,16.24-12.74,26.88-32.2,26.88C17.5,229.54,4.48,220.3,0,206.44Z"/><path class="cls-1" d="M155.4,193a36.06,36.06,0,0,1-35.58,36.54h-.68c-13.58,0-24.36-7-30.1-17.78V256H82V158h7v16.24c5.74-10.78,16.52-17.78,30.1-17.78a36.05,36.05,0,0,1,36.26,35.86Zm-7,0a29.52,29.52,0,1,0,0,.6Z"/><path class="cls-1" d="M231.7,157v6.72c-12,0-23.38,7.42-23.38,25.34V228h-7V158h7v13.72C213.08,160.66,222.18,157,231.7,157Z"/><path class="cls-1" d="M305.62,193.28c0,1.12-.14,2.24-.14,3.36H242.06c1.68,15.82,13.72,26.18,29.68,26.18,11.48,0,20.16-5.32,24.22-12.74l6.16,3.64c-5.74,9.52-16.66,15.82-30.52,15.82-21.56,0-36.82-15.4-36.82-36.54,0-20.58,14.84-36.54,36.26-36.54S305.62,174.1,305.62,193.28Zm-63.56-3.5h56.28c-1.54-17.08-13.58-26.6-27.3-26.6-16,0-27.58,11.06-29,26.6Z"/><path class="cls-1" d="M364.28,209.66c0,11.48-10.08,19.88-25.06,19.88-14,0-23.24-6.58-26.6-15.54l6-3.5c2.52,7.56,10.08,12.32,20.58,12.32,9.8,0,18.06-4.34,18.06-13.16,0-19-42.42-8.12-42.42-33.32,0-11.06,9.52-19.88,23.8-19.88,11.34,0,20,5.46,23.8,14l-5.88,3.36c-2.94-7.28-10.22-10.64-17.92-10.64-9.1,0-16.8,4.76-16.8,13.16C321.86,195.1,364.28,184,364.28,209.66Z"/><path class="cls-2" d="M438,14.17V251.44a9.07,9.07,0,0,1-9.07,9.07H186.75a9.07,9.07,0,0,1-9.07-9.07h0V134.6"/><circle class="cls-3" cx="177.68" cy="139.34" r="14.17"/><circle class="cls-3" cx="437.98" cy="14.17" r="14.17"/><path class="cls-4" d="M3.82,310.2v-2.91l18.58-7.35v3.2L7.46,308.76l14.94,5.57v3.22Z"/><path class="cls-4" d="M26.86,293.79h7.77a9.79,9.79,0,0,1,6.21,1.74A6,6,0,0,1,43,300.47a7.25,7.25,0,0,1-.3,2.17,4.88,4.88,0,0,1-.85,1.61,4.63,4.63,0,0,1-1.42,1.11,6.39,6.39,0,0,1-2,.63,6.23,6.23,0,0,1,4.06,2.19,6.37,6.37,0,0,1,1.09,2.06,8.47,8.47,0,0,1,.37,2.6,6.33,6.33,0,0,1-2.34,5.36c-1.57,1.22-3.91,1.83-7,1.83H26.86Zm7.7,10.82a8.89,8.89,0,0,0,2.24-.24,3.77,3.77,0,0,0,1.49-.76,3.88,3.88,0,0,0,1.14-3.11,4.86,4.86,0,0,0-.28-1.77,2.77,2.77,0,0,0-.85-1.15,6.21,6.21,0,0,0-3.74-.88H30.43v7.91Zm.07,12.5A7,7,0,0,0,39,316a4.34,4.34,0,0,0,1.32-3.55A4.76,4.76,0,0,0,39,308.67a6.64,6.64,0,0,0-4.34-1.19h-4.2v9.61Z"/><path class="cls-4" d="M50.93,300.34h2.93l.32,3.85A6.71,6.71,0,0,1,56.7,301a7,7,0,0,1,4-1.11,8.14,8.14,0,0,1,2.25.3,7,7,0,0,1,1,.37,7.52,7.52,0,0,1,1,.56v3.3a6.83,6.83,0,0,0-2.11-1.17,7.4,7.4,0,0,0-2.38-.37,5.69,5.69,0,0,0-4.6,1.89,8.25,8.25,0,0,0-1.6,5.49V320H50.93Z"/><path class="cls-4" d="M82.39,320.17a7,7,0,0,1-2.52-.44,5,5,0,0,1-2-1.42,7.83,7.83,0,0,1-1.6-5.28V302.87H72v-2.53h7.54V313a5.52,5.52,0,0,0,.81,3.29,2.49,2.49,0,0,0,1,.85,3.31,3.31,0,0,0,1.35.26h3.78v2.74Zm-5.91-23.4a.46.46,0,0,1-.52-.39.29.29,0,0,1,0-.13v-3a.46.46,0,0,1,.38-.53.33.33,0,0,1,.14,0H79a.46.46,0,0,1,.52.39.33.33,0,0,1,0,.14v3a.46.46,0,0,1-.39.52H76.48Z"/><path class="cls-4" d="M92.39,300.34h2.92l.32,3A6,6,0,0,1,98,300.77a6.71,6.71,0,0,1,3.48-.86,6.38,6.38,0,0,1,2.69.51,4.72,4.72,0,0,1,1.82,1.46q1.49,2,1.48,6V320h-3.25V307.8a6.51,6.51,0,0,0-.93-3.9,3.42,3.42,0,0,0-2.94-1.25,4.74,4.74,0,0,0-2,.4,3.92,3.92,0,0,0-1.45,1.2,7.48,7.48,0,0,0-1.23,4.62V320H92.39Z"/><path class="cls-4" d="M121.2,327.76a10.54,10.54,0,0,1-1.37-.06c-.46-.06-.93-.1-1.42-.18a13.83,13.83,0,0,1-1.43-.3c-.43-.12-1-.26-1.49-.42v-3.2c.57.27,1.13.5,1.66.7a14,14,0,0,0,1.47.49,9.88,9.88,0,0,0,2.65.39,6.22,6.22,0,0,0,2.22-.35,3.78,3.78,0,0,0,1.53-1.09,7,7,0,0,0,1.19-4.5V316.9a5.32,5.32,0,0,1-2.11,2.46,6.19,6.19,0,0,1-3.23.81,6.52,6.52,0,0,1-5.52-2.76,14.27,14.27,0,0,1,0-14.78,6.86,6.86,0,0,1,2.4-2.08,7,7,0,0,1,3.14-.68,8.21,8.21,0,0,1,1.71.18,6,6,0,0,1,1.47.57,5.62,5.62,0,0,1,2.14,2.34l.32-2.55h2.92v18.35c0,2.95-.7,5.18-2.09,6.72S123.92,327.76,121.2,327.76Zm.37-10.28a3.83,3.83,0,0,0,3.47-1.91,13.7,13.7,0,0,0,0-11.08,3.74,3.74,0,0,0-1.51-1.44,4.46,4.46,0,0,0-2-.44,4.08,4.08,0,0,0-3.6,1.88,12.81,12.81,0,0,0,0,11.08A4.06,4.06,0,0,0,121.57,317.48Z"/><path class="cls-4" d="M147.41,320.17a7,7,0,0,1-2.52-.44,5.06,5.06,0,0,1-2-1.42,7.83,7.83,0,0,1-1.6-5.28V302.87H137v-2.53h7.54V313a5.52,5.52,0,0,0,.81,3.29,2.49,2.49,0,0,0,1,.85,3.31,3.31,0,0,0,1.35.26h3.78v2.74Zm-5.9-23.4a.46.46,0,0,1-.53-.38.33.33,0,0,1,0-.14v-3a.46.46,0,0,1,.38-.53.38.38,0,0,1,.15,0H144a.46.46,0,0,1,.52.39.33.33,0,0,1,0,.14v3a.46.46,0,0,1-.39.52h-2.66Z"/><path class="cls-4" d="M157.41,300.34h2.92l.32,3a6,6,0,0,1,2.34-2.57,6.71,6.71,0,0,1,3.48-.86,6.38,6.38,0,0,1,2.69.51,4.72,4.72,0,0,1,1.82,1.46c1,1.33,1.49,3.33,1.48,6V320h-3.25V307.8a6.51,6.51,0,0,0-.93-3.9,3.42,3.42,0,0,0-2.94-1.25,4.74,4.74,0,0,0-2,.4,3.92,3.92,0,0,0-1.45,1.2,7.49,7.49,0,0,0-1.19,4.65V320h-3.24Z"/><path class="cls-4" d="M186.22,327.76a10.54,10.54,0,0,1-1.37-.06c-.46-.06-.93-.1-1.42-.18a13.83,13.83,0,0,1-1.43-.3c-.43-.12-1-.26-1.49-.42v-3.2c.58.27,1.13.5,1.66.7a14,14,0,0,0,1.47.49,10,10,0,0,0,2.66.39,6.17,6.17,0,0,0,2.21-.35,3.78,3.78,0,0,0,1.53-1.09,6.86,6.86,0,0,0,1.19-4.5V316.9a5.46,5.46,0,0,1-2.1,2.46,6.22,6.22,0,0,1-3.24.81,6.52,6.52,0,0,1-5.52-2.76,14.27,14.27,0,0,1,0-14.78,6.86,6.86,0,0,1,2.4-2.08,7,7,0,0,1,3.14-.68,8.21,8.21,0,0,1,1.71.18,5.22,5.22,0,0,1,3.61,2.91l.32-2.55h2.92v18.35c0,2.95-.7,5.18-2.09,6.72S188.94,327.76,186.22,327.76Zm.37-10.28a3.83,3.83,0,0,0,3.47-1.91,13.7,13.7,0,0,0,0-11.08,3.61,3.61,0,0,0-1.51-1.44,4.46,4.46,0,0,0-2-.44,4.07,4.07,0,0,0-3.61,1.88,12.81,12.81,0,0,0,0,11.08A4.08,4.08,0,0,0,186.59,317.48Z"/><path class="cls-4" d="M222.35,300.34h2.93l.32,2.52a5.74,5.74,0,0,1,2.16-2.24,6.25,6.25,0,0,1,3.11-.75,7.24,7.24,0,0,1,3.17.68,6.74,6.74,0,0,1,2.42,2.08,9.58,9.58,0,0,1,1.52,3.29,17,17,0,0,1,.5,4.32,12.48,12.48,0,0,1-2,7.56,6.6,6.6,0,0,1-5.59,2.74,6.79,6.79,0,0,1-1.74-.2,6.45,6.45,0,0,1-1.39-.57,5.42,5.42,0,0,1-2.13-2.22v10h-3.25Zm8,17.46a3.86,3.86,0,0,0,3.53-1.92,14.26,14.26,0,0,0,0-11.35,3.86,3.86,0,0,0-3.53-1.92,4,4,0,0,0-3.57,1.92,10.81,10.81,0,0,0-1.21,5.67,10.61,10.61,0,0,0,1.21,5.66,4,4,0,0,0,3.6,1.94Z"/><path class="cls-4" d="M246,300.34h2.94l.31,3.85A6.75,6.75,0,0,1,251.7,301a6.9,6.9,0,0,1,4-1.11,8.14,8.14,0,0,1,2.25.3,7,7,0,0,1,1,.37,6.55,6.55,0,0,1,1,.56v3.3a6.63,6.63,0,0,0-2.11-1.17,7.3,7.3,0,0,0-2.37-.37,5.71,5.71,0,0,0-4.61,1.89,8.3,8.3,0,0,0-1.6,5.49V320H246Z"/><path class="cls-4" d="M273.18,320.54a9.19,9.19,0,0,1-3.59-.66,6.72,6.72,0,0,1-2.66-2,8.94,8.94,0,0,1-1.64-3.31,16.78,16.78,0,0,1-.53-4.4q0-5,2.17-7.67a7.59,7.59,0,0,1,6.25-2.65,9.2,9.2,0,0,1,3.67.67,6.92,6.92,0,0,1,2.61,2q2.16,2.67,2.16,7.65a17.23,17.23,0,0,1-.53,4.46,8.6,8.6,0,0,1-1.63,3.27,6.56,6.56,0,0,1-2.63,2A9.11,9.11,0,0,1,273.18,320.54Zm0-2.74a4.21,4.21,0,0,0,3.75-1.94,10.34,10.34,0,0,0,1.26-5.66,10.46,10.46,0,0,0-1.26-5.67,4.59,4.59,0,0,0-6.4-1.07,4.53,4.53,0,0,0-1.07,1.07,13.27,13.27,0,0,0,0,11.33,4.16,4.16,0,0,0,3.72,1.94Z"/><path class="cls-4" d="M294.59,327.76a10.54,10.54,0,0,1-1.37-.06c-.46-.06-.93-.1-1.42-.18a13.83,13.83,0,0,1-1.43-.3c-.43-.12-1-.26-1.49-.42v-3.2c.58.27,1.13.5,1.66.7a14,14,0,0,0,1.47.49,9.88,9.88,0,0,0,2.65.39,6.22,6.22,0,0,0,2.22-.35,3.78,3.78,0,0,0,1.53-1.09,6.86,6.86,0,0,0,1.19-4.5V316.9a5.32,5.32,0,0,1-2.11,2.46,6.19,6.19,0,0,1-3.23.81,6.52,6.52,0,0,1-5.52-2.76,14.27,14.27,0,0,1,0-14.78,6.86,6.86,0,0,1,2.4-2.08,7,7,0,0,1,3.14-.68,8.21,8.21,0,0,1,1.71.18,6,6,0,0,1,1.47.57A5.66,5.66,0,0,1,299.6,303l.32-2.55h2.92V318.8c0,2.95-.7,5.18-2.09,6.72S297.31,327.76,294.59,327.76Zm.37-10.28a3.83,3.83,0,0,0,3.47-1.91A10.76,10.76,0,0,0,299.6,310a10.65,10.65,0,0,0-1.17-5.54,3.74,3.74,0,0,0-1.51-1.44,4.46,4.46,0,0,0-2-.44,4.07,4.07,0,0,0-3.61,1.88,12.81,12.81,0,0,0,0,11.08A4.06,4.06,0,0,0,295,317.48Z"/><path class="cls-4" d="M311,300.34H314l.31,3.85a6.77,6.77,0,0,1,2.5-3.21,6.9,6.9,0,0,1,4-1.11,8.53,8.53,0,0,1,2.25.3,7,7,0,0,1,1,.37,6.55,6.55,0,0,1,1,.56v3.3a6.63,6.63,0,0,0-2.11-1.17,7.3,7.3,0,0,0-2.37-.37,5.73,5.73,0,0,0-4.61,1.89,8.3,8.3,0,0,0-1.6,5.49V320h-3.25Z"/><path class="cls-4" d="M336.4,320.54a6.67,6.67,0,0,1-4.84-1.71,5.85,5.85,0,0,1-1.32-1.9,6.83,6.83,0,0,1-.47-2.65,5.92,5.92,0,0,1,2.21-5c1.46-1.14,3.61-1.71,6.47-1.71h4.34v-.51a6.18,6.18,0,0,0-.3-2,3.12,3.12,0,0,0-.89-1.42,3.69,3.69,0,0,0-1.53-.8,8.75,8.75,0,0,0-2.22-.26,12.26,12.26,0,0,0-3.35.47,14,14,0,0,0-3.29,1.39v-3.23c.49-.19,1-.38,1.63-.56s1.21-.35,1.82-.48a15.75,15.75,0,0,1,3.21-.33,12.34,12.34,0,0,1,2.27.18,9.64,9.64,0,0,1,1.9.56,8.39,8.39,0,0,1,1.54.88,6.07,6.07,0,0,1,1.24,1.24,5.16,5.16,0,0,1,.59,1.08,5.87,5.87,0,0,1,.35,1.1,19.5,19.5,0,0,1,.29,3.89v5.8a12.52,12.52,0,0,0,.1,1.44c.05.44.13.95.21,1.39s.14.76.2,1,.17.67.28,1,.17.51.19.57h-3.25c-.06-.14-.13-.35-.22-.62s-.17-.58-.25-.91-.12-.52-.17-.78-.09-.49-.11-.68a6.37,6.37,0,0,1-1.31,1.57,9.45,9.45,0,0,1-1.58,1.09,7.42,7.42,0,0,1-1.78.64A9.93,9.93,0,0,1,336.4,320.54Zm.66-2.71a5.16,5.16,0,0,0,4.19-1.86,7.91,7.91,0,0,0,1.54-5.12v-.72H338.7a7.55,7.55,0,0,0-4.26,1,3,3,0,0,0-1.09,1.26,4.09,4.09,0,0,0-.35,1.73,4.34,4.34,0,0,0,.28,1.59,3.31,3.31,0,0,0,.8,1.15,3.72,3.72,0,0,0,1.23.72,5.19,5.19,0,0,0,1.75.25Z"/><path class="cls-4" d="M351,300.34h2.65l.28,1.69a4.55,4.55,0,0,1,1.46-1.62,3.71,3.71,0,0,1,2-.54,3.85,3.85,0,0,1,2.21.61,4,4,0,0,1,1.37,1.87,4.32,4.32,0,0,1,1.53-1.88,4.06,4.06,0,0,1,2.22-.6,4.34,4.34,0,0,1,2.06.46,3.19,3.19,0,0,1,1.3,1.37c.64,1.22,1,3.52,1,6.92V320H366.1V306.76a7.84,7.84,0,0,0-.08-1.46c-.08-.41-.1-.77-.15-1.06a2.75,2.75,0,0,0-.21-.69,1.59,1.59,0,0,0-.6-.73,2.1,2.1,0,0,0-1.15-.27,2.3,2.3,0,0,0-1.12.25,1.74,1.74,0,0,0-.72.82,5.68,5.68,0,0,0-.42,1.82c-.08.8-.13,1.9-.13,3.29V320h-2.95V306.59a11.25,11.25,0,0,0-.11-1.48,6.74,6.74,0,0,0-.17-1,4.1,4.1,0,0,0-.2-.59,1.64,1.64,0,0,0-.66-.72,2.48,2.48,0,0,0-2.27,0,1.77,1.77,0,0,0-.62.76,5.25,5.25,0,0,0-.22.67c-.06.27-.12.6-.17,1s-.08.89-.1,1.45,0,1.23,0,2V320h-2.93Z"/><path class="cls-4" d="M372.64,300.34h2.66l.28,1.69a4.29,4.29,0,0,1,1.46-1.62,3.63,3.63,0,0,1,2-.54,3.88,3.88,0,0,1,2.22.61,4,4,0,0,1,1.37,1.87,4.32,4.32,0,0,1,1.53-1.88,4,4,0,0,1,2.21-.6,4.23,4.23,0,0,1,2.06.46,3.13,3.13,0,0,1,1.3,1.37c.64,1.22,1,3.52,1,6.92V320h-3V306.76a13.7,13.7,0,0,0-.09-1.46,9.32,9.32,0,0,0-.15-1.06,2.75,2.75,0,0,0-.21-.69,1.59,1.59,0,0,0-.6-.73,2,2,0,0,0-1.14-.27,2.34,2.34,0,0,0-1.13.25,1.79,1.79,0,0,0-.72.82,5.68,5.68,0,0,0-.42,1.82c-.08.8-.12,1.9-.12,3.29V320h-3V306.59a11.25,11.25,0,0,0-.11-1.48,6.72,6.72,0,0,0-.16-1,4.1,4.1,0,0,0-.2-.59,1.77,1.77,0,0,0-.66-.72,2.08,2.08,0,0,0-1.12-.26,1.87,1.87,0,0,0-1.15.29,1.73,1.73,0,0,0-.63.76,5.25,5.25,0,0,0-.22.67,8.33,8.33,0,0,0-.16,1c0,.4-.08.89-.11,1.45s0,1.23,0,2V320h-2.94Z"/><path class="cls-4" d="M407.5,320.17a7,7,0,0,1-2.52-.44,5,5,0,0,1-2-1.42,7.83,7.83,0,0,1-1.6-5.28V302.87h-4.31v-2.53h7.63V313a5.52,5.52,0,0,0,.81,3.29,2.49,2.49,0,0,0,1,.85,3.31,3.31,0,0,0,1.35.26h3.77v2.74Zm-5.91-23.4a.46.46,0,0,1-.52-.39.29.29,0,0,1,0-.13v-3a.46.46,0,0,1,.38-.53.33.33,0,0,1,.14,0h2.53a.46.46,0,0,1,.53.38.38.38,0,0,1,0,.15v3a.46.46,0,0,1-.39.52h-2.67Z"/><path class="cls-4" d="M417.5,300.34h2.92l.32,3a6.09,6.09,0,0,1,2.33-2.57,6.81,6.81,0,0,1,3.48-.86,6.38,6.38,0,0,1,2.69.51,4.73,4.73,0,0,1,1.83,1.46c1,1.33,1.49,3.33,1.48,6V320H429.3V307.8a6.44,6.44,0,0,0-.94-3.9,3.44,3.44,0,0,0-2.93-1.25,4.74,4.74,0,0,0-2,.4,3.84,3.84,0,0,0-1.45,1.2,7.46,7.46,0,0,0-1.28,4.65V320h-3.2Z"/><path class="cls-4" d="M446.31,327.76a10.47,10.47,0,0,1-1.37-.06c-.46-.06-.93-.1-1.42-.18a14.61,14.61,0,0,1-1.44-.3c-.44-.12-1-.26-1.48-.42v-3.2c.57.27,1.13.5,1.66.7a14,14,0,0,0,1.47.49,9.88,9.88,0,0,0,2.65.39,6.22,6.22,0,0,0,2.22-.35,3.78,3.78,0,0,0,1.53-1.09,7,7,0,0,0,1.19-4.5V316.9a5.48,5.48,0,0,1-2.11,2.46,6.19,6.19,0,0,1-3.23.81,6.52,6.52,0,0,1-5.52-2.76,14.27,14.27,0,0,1,0-14.78,6.86,6.86,0,0,1,2.4-2.08,6.93,6.93,0,0,1,3.13-.68,8.23,8.23,0,0,1,1.72.18,6,6,0,0,1,1.47.57,5.62,5.62,0,0,1,2.14,2.34l.32-2.55h2.92v18.35c0,2.95-.7,5.18-2.1,6.72S449,327.76,446.31,327.76Zm.37-10.28a3.81,3.81,0,0,0,3.46-1.91,10.66,10.66,0,0,0,1.18-5.54,10.54,10.54,0,0,0-1.18-5.54,3.71,3.71,0,0,0-1.5-1.44,4.46,4.46,0,0,0-2-.44,4.08,4.08,0,0,0-3.6,1.88,10.18,10.18,0,0,0-1.25,5.56,10,10,0,0,0,1.27,5.52,4.06,4.06,0,0,0,3.64,1.91Z"/><path class="cls-4" d="M488.15,318.64q-1.5-1.44-1.5-5V302.86H481.4v-2.52h5.3v-5.15l3.24-1.4v6.55h7.35v2.52h-7.35v10.75a4.43,4.43,0,0,0,.82,3.05,3.92,3.92,0,0,0,2.89.86h3.64v2.58h-4C490.9,320.1,489.18,319.61,488.15,318.64Z"/><path class="cls-4" d="M509.79,320.54a6.67,6.67,0,0,1-4.84-1.71,5.85,5.85,0,0,1-1.32-1.9,6.83,6.83,0,0,1-.47-2.65,5.92,5.92,0,0,1,2.21-5c1.46-1.14,3.61-1.71,6.47-1.71h4.34v-.51a6.46,6.46,0,0,0-.29-2,3.29,3.29,0,0,0-.9-1.42,3.69,3.69,0,0,0-1.53-.8,8.75,8.75,0,0,0-2.22-.26,12.26,12.26,0,0,0-3.35.47,14,14,0,0,0-3.29,1.39v-3.23a17.23,17.23,0,0,1,1.64-.56,18.53,18.53,0,0,1,1.81-.48,15.75,15.75,0,0,1,3.21-.33,12.34,12.34,0,0,1,2.27.18,9.64,9.64,0,0,1,1.9.56,8.39,8.39,0,0,1,1.54.88,6.07,6.07,0,0,1,1.24,1.24,5.16,5.16,0,0,1,.59,1.08,7.07,7.07,0,0,1,.36,1.1,20.26,20.26,0,0,1,.28,3.89v5.8a12.52,12.52,0,0,0,.1,1.44c.05.44.13.95.21,1.39s.14.76.2,1,.17.67.28,1,.17.51.19.57h-3.25c-.06-.14-.13-.35-.22-.62s-.17-.58-.25-.91-.12-.52-.17-.78-.09-.49-.11-.68a6.37,6.37,0,0,1-1.31,1.57,9.45,9.45,0,0,1-1.58,1.09,7,7,0,0,1-1.78.64A9.93,9.93,0,0,1,509.79,320.54Zm.66-2.71a5.16,5.16,0,0,0,4.19-1.86,7.91,7.91,0,0,0,1.54-5.12v-.72h-4.09a7.55,7.55,0,0,0-4.26,1,3,3,0,0,0-1.09,1.26,4.09,4.09,0,0,0-.35,1.73,4.34,4.34,0,0,0,.28,1.59,3.31,3.31,0,0,0,.8,1.15,3.9,3.9,0,0,0,1.23.72,5,5,0,0,0,1.75.25Z"/><path class="cls-4" d="M534.35,319.73a5.06,5.06,0,0,1-2-1.42,7.89,7.89,0,0,1-1.6-5.28V295.21h-5.18v-2.53H534V313a5.6,5.6,0,0,0,.8,3.29,2.58,2.58,0,0,0,1,.85,3.24,3.24,0,0,0,1.34.26h3.78v2.74h-4.1A7.1,7.1,0,0,1,534.35,319.73Z"/><path class="cls-4" d="M556,320.54a11.28,11.28,0,0,1-4.07-.69,8.17,8.17,0,0,1-3.07-2.05,9.07,9.07,0,0,1-1.93-3.26,13.44,13.44,0,0,1-.65-4.32,13.09,13.09,0,0,1,.66-4.35,9.46,9.46,0,0,1,1.85-3.19,8.05,8.05,0,0,1,3-2.12,9.76,9.76,0,0,1,3.7-.69,8.36,8.36,0,0,1,3.46.65,6.94,6.94,0,0,1,2.54,1.88,8.55,8.55,0,0,1,1.61,3,13.24,13.24,0,0,1,.55,4V311h-14v.11a6.88,6.88,0,0,0,1.69,5,5.41,5.41,0,0,0,2,1.3,7.36,7.36,0,0,0,2.75.46,11.53,11.53,0,0,0,3.25-.49,20.26,20.26,0,0,0,3.6-1.5V319c-.62.26-1.22.48-1.81.67s-1.16.34-1.74.47a13.38,13.38,0,0,1-1.68.28A17,17,0,0,1,556,320.54Zm4.43-12.11a9.09,9.09,0,0,0-.4-2.59,4.87,4.87,0,0,0-.94-1.75,3.92,3.92,0,0,0-1.56-1.11,5.57,5.57,0,0,0-2.1-.37,5.13,5.13,0,0,0-3.86,1.55,7,7,0,0,0-1.8,4.29Z"/><path class="cls-4" d="M569.22,300.34h2.92l.31,3a6.24,6.24,0,0,1,2.34-2.57,6.71,6.71,0,0,1,3.48-.86,6.38,6.38,0,0,1,2.69.51,4.73,4.73,0,0,1,1.83,1.46q1.47,2,1.47,6V320H581V307.8a6.51,6.51,0,0,0-.93-3.9,3.44,3.44,0,0,0-2.93-1.25,4.9,4.9,0,0,0-2,.4,3.92,3.92,0,0,0-1.45,1.2,7.48,7.48,0,0,0-1.23,4.62V320h-3.23Z"/><path class="cls-4" d="M596.52,318.64q-1.5-1.44-1.5-5V302.86h-5.25v-2.52H595v-5.15l3.24-1.4v6.55h7.34v2.52h-7.34v10.75a4.43,4.43,0,0,0,.82,3.05,3.92,3.92,0,0,0,2.89.86h3.63v2.58h-3.9C599.24,320.1,597.52,319.61,596.52,318.64Z"/><path class="cls-4" d="M249,378.64q-1.5-1.44-1.5-5V362.86h-5.25v-2.52h5.25v-5.15l3.24-1.4v6.55h7.34v2.52H250.7v10.75a4.43,4.43,0,0,0,.82,3.05,3.92,3.92,0,0,0,2.89.86H258v2.58h-4Q250.51,380.1,249,378.64Z"/><path class="cls-4" d="M272.45,380.54a9.23,9.23,0,0,1-3.6-.66,6.72,6.72,0,0,1-2.66-2,8.94,8.94,0,0,1-1.64-3.31,16.77,16.77,0,0,1-.52-4.4q0-5,2.16-7.67a7.59,7.59,0,0,1,6.26-2.65,9.18,9.18,0,0,1,3.66.67,6.92,6.92,0,0,1,2.61,2q2.16,2.67,2.16,7.65a17.23,17.23,0,0,1-.53,4.46,8.57,8.57,0,0,1-1.65,3.27,6.56,6.56,0,0,1-2.63,2A9.14,9.14,0,0,1,272.45,380.54Zm0-2.74a4.2,4.2,0,0,0,3.74-1.94,10.26,10.26,0,0,0,1.27-5.66,10.47,10.47,0,0,0-1.27-5.67,4.59,4.59,0,0,0-6.4-1.07,4.53,4.53,0,0,0-1.07,1.07,10.47,10.47,0,0,0-1.27,5.67,10.26,10.26,0,0,0,1.27,5.66,4.16,4.16,0,0,0,3.73,1.94Z"/><path class="cls-4" d="M308.2,384.81h1.92a3.34,3.34,0,0,0,1.33-.24,3,3,0,0,0,.9-.58,6.28,6.28,0,0,0,.88-1.39,30.11,30.11,0,0,0,1.17-2.89l-7.61-19.37h3.43l5.84,15.4,5.74-15.4h3.43l-5.18,13.36c-.28.73-.5,1.29-.66,1.69l-.37.94c-.09.23-.16.4-.2.53s-.1.26-.16.43l-.24.65-.43,1.18c-.35.95-.65,1.74-.9,2.39l-.66,1.61c-.19.42-.35.76-.47,1l-.31.61a6.33,6.33,0,0,1-.86,1.19,4.82,4.82,0,0,1-1.16.9,5.7,5.7,0,0,1-2.83.69h-2.6Z"/><path class="cls-4" d="M337.47,380.54a9.23,9.23,0,0,1-3.6-.66,6.82,6.82,0,0,1-2.66-2,8.77,8.77,0,0,1-1.63-3.31,16.78,16.78,0,0,1-.53-4.4q0-5,2.16-7.67a7.59,7.59,0,0,1,6.26-2.65,9.18,9.18,0,0,1,3.66.67,6.92,6.92,0,0,1,2.61,2c1.44,1.78,2.17,4.33,2.17,7.65a16.81,16.81,0,0,1-.54,4.46,8.76,8.76,0,0,1-1.67,3.27,6.62,6.62,0,0,1-2.62,2A9.3,9.3,0,0,1,337.47,380.54Zm0-2.74a4.2,4.2,0,0,0,3.74-1.94,13.27,13.27,0,0,0,0-11.33,4.59,4.59,0,0,0-6.4-1.07,4.53,4.53,0,0,0-1.07,1.07,10.46,10.46,0,0,0-1.26,5.67,10.34,10.34,0,0,0,1.26,5.66,4.18,4.18,0,0,0,3.73,1.94Z"/><path class="cls-4" d="M357.7,380.54a5.23,5.23,0,0,1-4.48-2c-1-1.33-1.49-3.33-1.48-6v-12.2H355v12.2a6.44,6.44,0,0,0,.94,3.9,2.9,2.9,0,0,0,1.16.92,4.64,4.64,0,0,0,5.24-1.29,7.51,7.51,0,0,0,1.22-4.61V360.38h3.25V380h-2.94l-.31-2.95a6.14,6.14,0,0,1-2.34,2.58A6.71,6.71,0,0,1,357.7,380.54Z"/><path class="cls-4" d="M375.3,360.34h2.93l.32,3.85A6.75,6.75,0,0,1,381,361a7,7,0,0,1,4-1.11,8.14,8.14,0,0,1,2.25.3,7,7,0,0,1,1,.37,7.52,7.52,0,0,1,1,.56v3.3a6.83,6.83,0,0,0-2.11-1.17,7.4,7.4,0,0,0-2.38-.37,5.69,5.69,0,0,0-4.6,1.89,8.25,8.25,0,0,0-1.6,5.49V380h-3.3Z"/><path class="cls-4" d="M418.64,360.34h2.94l.32,3.85a6.75,6.75,0,0,1,2.49-3.21,6.9,6.9,0,0,1,4-1.11,8.53,8.53,0,0,1,2.25.3,7,7,0,0,1,1,.37,6.55,6.55,0,0,1,1,.56v3.3a6.63,6.63,0,0,0-2.11-1.17,7,7,0,0,0-2.37-.37,5.73,5.73,0,0,0-4.61,1.89,8.35,8.35,0,0,0-1.59,5.49V380H418.7Z"/><path class="cls-4" d="M446.91,380.54a11.28,11.28,0,0,1-4.07-.69,8.5,8.5,0,0,1-3.07-2.05,9,9,0,0,1-1.92-3.26,13.17,13.17,0,0,1-.66-4.32,12.85,12.85,0,0,1,.67-4.35,9.44,9.44,0,0,1,1.84-3.19,8.25,8.25,0,0,1,3-2.12,9.81,9.81,0,0,1,3.71-.69,8.34,8.34,0,0,1,3.45.65,6.94,6.94,0,0,1,2.54,1.88,8.55,8.55,0,0,1,1.61,3,13.24,13.24,0,0,1,.55,4V371h-14v.11a6.93,6.93,0,0,0,1.69,5,5.41,5.41,0,0,0,2,1.3,7.36,7.36,0,0,0,2.75.46,11.53,11.53,0,0,0,3.25-.49,21.14,21.14,0,0,0,3.61-1.5V379c-.62.26-1.23.48-1.81.67s-1.17.34-1.74.47a13.85,13.85,0,0,1-1.69.28A16.38,16.38,0,0,1,446.91,380.54Zm4.43-12.11a8.75,8.75,0,0,0-.4-2.59,4.87,4.87,0,0,0-.94-1.75,3.92,3.92,0,0,0-1.56-1.11,5.55,5.55,0,0,0-2.09-.37,5.15,5.15,0,0,0-3.87,1.55,6.92,6.92,0,0,0-1.79,4.29Z"/><path class="cls-4" d="M467.05,380.54a11.13,11.13,0,0,1-1.59-.08c-.59-.08-1.07-.13-1.57-.22s-1-.22-1.61-.39-1.23-.34-1.85-.54V376c.75.37,1.39.66,1.91.87a14.85,14.85,0,0,0,1.55.52,13.55,13.55,0,0,0,1.56.35,10.28,10.28,0,0,0,1.57.12,5.49,5.49,0,0,0,3.32-.88,2.67,2.67,0,0,0,.9-1.07,3,3,0,0,0,.28-1.25,2.37,2.37,0,0,0-1-2,8.37,8.37,0,0,0-3.27-1.22h-.14l-1.21-.24a11.37,11.37,0,0,1-2.35-.71,5.54,5.54,0,0,1-1.73-1.14,4.75,4.75,0,0,1-1.28-3.53,6.24,6.24,0,0,1,.48-2.52,4.86,4.86,0,0,1,1.43-1.84,6.28,6.28,0,0,1,2.39-1.17,12.53,12.53,0,0,1,3.11-.36,11.12,11.12,0,0,1,1.52.07c.52.07,1,.12,1.49.21a12,12,0,0,1,1.4.36,15.07,15.07,0,0,1,1.47.52v3.16A12.88,12.88,0,0,0,471,363a10.31,10.31,0,0,0-2.93-.4,8.75,8.75,0,0,0-1.84.17,4,4,0,0,0-1.36.53,2.44,2.44,0,0,0-1.09,2.2,2.88,2.88,0,0,0,.2,1.12,1.86,1.86,0,0,0,.61.83,4.42,4.42,0,0,0,1.34.62,22.23,22.23,0,0,0,2.68.64l1.3.25a8.15,8.15,0,0,1,2.16.7,4.85,4.85,0,0,1,2.73,4.71,5.94,5.94,0,0,1-.54,2.63,5.4,5.4,0,0,1-1.54,1.91,7.09,7.09,0,0,1-2.5,1.25A11.51,11.51,0,0,1,467.05,380.54Z"/><path class="cls-4" d="M490.26,380.54a11.28,11.28,0,0,1-4.07-.69,8.17,8.17,0,0,1-3.07-2.05,8.9,8.9,0,0,1-1.92-3.26,14.57,14.57,0,0,1,0-8.67,9.46,9.46,0,0,1,1.85-3.19,8.25,8.25,0,0,1,3-2.12,9.76,9.76,0,0,1,3.7-.69,8.36,8.36,0,0,1,3.46.65,6.94,6.94,0,0,1,2.54,1.88,8.55,8.55,0,0,1,1.61,3,13.24,13.24,0,0,1,.55,4V371h-14v.11a6.88,6.88,0,0,0,1.69,5,5.41,5.41,0,0,0,2,1.3,7.36,7.36,0,0,0,2.75.46,11.53,11.53,0,0,0,3.25-.49,20.26,20.26,0,0,0,3.6-1.5V379c-.62.26-1.22.48-1.81.67s-1.16.34-1.74.47a13.38,13.38,0,0,1-1.68.28A16.38,16.38,0,0,1,490.26,380.54Zm4.44-12.11a9.09,9.09,0,0,0-.4-2.59,4.87,4.87,0,0,0-.94-1.75A3.92,3.92,0,0,0,491.8,363a5.57,5.57,0,0,0-2.1-.37,5.13,5.13,0,0,0-3.86,1.55,7,7,0,0,0-1.8,4.29Z"/><path class="cls-4" d="M509.05,380.54a6.67,6.67,0,0,1-4.84-1.71,5.67,5.67,0,0,1-1.31-1.9,6.66,6.66,0,0,1-.48-2.65,5.92,5.92,0,0,1,2.22-5c1.45-1.14,3.61-1.71,6.46-1.71h4.35v-.51a6.18,6.18,0,0,0-.3-2,3.29,3.29,0,0,0-.9-1.42,3.69,3.69,0,0,0-1.53-.8,8.68,8.68,0,0,0-2.21-.26,12.28,12.28,0,0,0-3.36.47,14,14,0,0,0-3.29,1.39v-3.23a17.23,17.23,0,0,1,1.64-.56,18.53,18.53,0,0,1,1.81-.48,15.75,15.75,0,0,1,3.21-.33,12.34,12.34,0,0,1,2.27.18,9.64,9.64,0,0,1,1.9.56,8.39,8.39,0,0,1,1.54.88,6.07,6.07,0,0,1,1.24,1.24,5.71,5.71,0,0,1,.6,1.08,8.77,8.77,0,0,1,.35,1.1,20.26,20.26,0,0,1,.28,3.89v5.8a14,14,0,0,0,.11,1.44c.05.49.12.95.2,1.39s.14.76.2,1,.18.71.28,1,.17.51.2.57h-3.26c-.06-.14-.13-.35-.22-.62s-.17-.58-.25-.91-.12-.52-.17-.78-.09-.49-.11-.68a6.37,6.37,0,0,1-1.31,1.57,9.45,9.45,0,0,1-1.58,1.09,7,7,0,0,1-1.78.64A9.93,9.93,0,0,1,509.05,380.54Zm.67-2.71A5.13,5.13,0,0,0,513.9,376a7.83,7.83,0,0,0,1.55-5.12v-.72h-4.1a7.54,7.54,0,0,0-4.25,1,3,3,0,0,0-1.1,1.26,4.63,4.63,0,0,0-.06,3.32,3.28,3.28,0,0,0,.79,1.15,3.77,3.77,0,0,0,1.24.72,5.05,5.05,0,0,0,1.73.22Z"/><path class="cls-4" d="M527,360.34H530l.31,3.85a6.83,6.83,0,0,1,2.5-3.21,6.9,6.9,0,0,1,4-1.11,8.53,8.53,0,0,1,2.25.3,7,7,0,0,1,1,.37,6.55,6.55,0,0,1,1,.56v3.3a6.63,6.63,0,0,0-2.11-1.17,7,7,0,0,0-2.37-.37,5.73,5.73,0,0,0-4.61,1.89,8.3,8.3,0,0,0-1.6,5.49V380h-3.25Z"/><path class="cls-4" d="M555.89,380.54a11.16,11.16,0,0,1-4-.69,8.14,8.14,0,0,1-3.06-2.05,8.93,8.93,0,0,1-1.93-3.28,13.47,13.47,0,0,1-.64-4.32,13,13,0,0,1,.68-4.41,8.9,8.9,0,0,1,1.9-3.2,8.41,8.41,0,0,1,3.09-2,11.14,11.14,0,0,1,4-.67,12.58,12.58,0,0,1,1.5.09,7.71,7.71,0,0,1,1.35.28,11.79,11.79,0,0,1,2.72,1.14v3.39a13.75,13.75,0,0,0-1.28-1,6.25,6.25,0,0,0-1.28-.67,8.06,8.06,0,0,0-2.92-.51,5.76,5.76,0,0,0-4.69,2,8.55,8.55,0,0,0-1.64,5.61,12.2,12.2,0,0,0,.38,3.13,6.32,6.32,0,0,0,1.26,2.49,5.79,5.79,0,0,0,4.74,2,8.68,8.68,0,0,0,1.61-.14,7.64,7.64,0,0,0,1.34-.39,7,7,0,0,0,1.37-.69,10.74,10.74,0,0,0,1.11-.91V379a12.12,12.12,0,0,1-1.3.65,13.12,13.12,0,0,1-1.37.49,7.76,7.76,0,0,1-1.34.27A10.68,10.68,0,0,1,555.89,380.54Z"/><path class="cls-4" d="M568.48,352.68h3.22V363.3a6.24,6.24,0,0,1,2.34-2.57,6.71,6.71,0,0,1,3.48-.86,6.38,6.38,0,0,1,2.69.51,4.73,4.73,0,0,1,1.83,1.46c1,1.32,1.48,3.32,1.48,6V380h-3.26V367.8a6.51,6.51,0,0,0-.93-3.9,3.44,3.44,0,0,0-2.93-1.25,4.9,4.9,0,0,0-2,.4,4,4,0,0,0-1.45,1.2,7.44,7.44,0,0,0-1.25,4.65V380h-3.23Z"/><path class="cls-4" d="M602.35,353.79h3.35l-13.81,29.58h-3.36Z"/><path class="cls-4" d="M610,374.33l14.94-5.57L610,363.14v-3.2l18.58,7.35v2.91L610,377.55Z"/><path class="cls-5" d="M631.25,310.08l21.06.39a3,3,0,0,1,2.94,3v24a3,3,0,0,1-3,3l-455.27,1a4,4,0,0,0-4,4V366a3,3,0,0,0,2.86,2.94l21.14.6"/><circle class="cls-3" cx="633.25" cy="310.09" r="8.5"/><circle class="cls-3" cx="215.17" cy="369.57" r="8.5"/></svg>