<svg id="Layer_1" data-name="Layer 1" xmlns="http://www.w3.org/2000/svg" viewBox="0 0 654.93 402.8"><defs><style>.cls-1{fill:#00687f;}.cls-2,.cls-4{fill:none;stroke-miterlimit:10;}.cls-2{stroke:#65c8d0;stroke-width:7px;}.cls-3{fill:#65c8d0;}.cls-4{stroke:#fff;stroke-width:8px;}.cls-5{fill:#fff;}</style></defs><title>extended_dark_logo_variant</title><path class="cls-1" d="M0,325.48v-2.91l18.6-7.35v3.2L3.6,324l15,5.61v3.22Z"/><path class="cls-1" d="M23,309.07h7.77A9.79,9.79,0,0,1,37,310.81a6,6,0,0,1,2.18,4.94,7.25,7.25,0,0,1-.3,2.17,4.84,4.84,0,0,1-.85,1.6,4.52,4.52,0,0,1-1.45,1.12,6.12,6.12,0,0,1-2,.62,6,6,0,0,1,5.15,4.26,8.47,8.47,0,0,1,.37,2.6,6.36,6.36,0,0,1-2.34,5.36c-1.57,1.22-3.91,1.83-7,1.83H23Zm7.7,10.82a8.89,8.89,0,0,0,2.24-.24,3.77,3.77,0,0,0,1.49-.76,3.88,3.88,0,0,0,1.13-3.11,4.86,4.86,0,0,0-.28-1.77,2.84,2.84,0,0,0-.84-1.15,6.26,6.26,0,0,0-3.75-.88H26.6v7.91Zm.07,12.5a7,7,0,0,0,4.41-1.09,4.34,4.34,0,0,0,1.32-3.55A4.76,4.76,0,0,0,35.15,324a6.52,6.52,0,0,0-4.34-1.19H26.6v9.61Z"/><path class="cls-1" d="M47.11,315.62H50l.32,3.85a6.78,6.78,0,0,1,2.49-3.22,7,7,0,0,1,4-1.1,8.14,8.14,0,0,1,2.25.3,7,7,0,0,1,1,.37,7.52,7.52,0,0,1,1,.56v3.3A7.06,7.06,0,0,0,59,318.5a7.39,7.39,0,0,0-2.38-.36A5.69,5.69,0,0,0,52,320a8.25,8.25,0,0,0-1.6,5.49v9.79h-3.3Z"/><path class="cls-1" d="M78.6,335.45a7,7,0,0,1-2.52-.44,5,5,0,0,1-2-1.42,7.89,7.89,0,0,1-1.6-5.28V318.15h-4.3v-2.53h7.54v12.69a5.52,5.52,0,0,0,.81,3.29,2.4,2.4,0,0,0,1,.84,3.17,3.17,0,0,0,1.35.27h3.78v2.74Zm-5.91-23.4a.46.46,0,0,1-.52-.39.29.29,0,0,1,0-.13v-3a.46.46,0,0,1,.38-.53H75.2a.46.46,0,0,1,.52.39.33.33,0,0,1,0,.14v3a.46.46,0,0,1-.39.52H72.69Z"/><path class="cls-1" d="M88.6,315.62h2.92l.32,3A6,6,0,0,1,94.15,316a6.62,6.62,0,0,1,3.48-.86,6.38,6.38,0,0,1,2.69.51,4.72,4.72,0,0,1,1.82,1.46q1.48,2,1.48,6v12.2h-3.25v-12.2a6.51,6.51,0,0,0-.93-3.9A3.43,3.43,0,0,0,96.5,318a4.59,4.59,0,0,0-2,.4,3.92,3.92,0,0,0-1.45,1.2,7.48,7.48,0,0,0-1.23,4.62v11.13H88.6Z"/><path class="cls-1" d="M117.38,343a10.54,10.54,0,0,1-1.37-.06c-.46-.06-.93-.1-1.42-.18a13.83,13.83,0,0,1-1.43-.3c-.43-.12-1-.26-1.49-.42v-3.2c.58.27,1.13.5,1.66.7s1,.36,1.47.49a9.88,9.88,0,0,0,2.65.39,6.22,6.22,0,0,0,2.22-.35A3.73,3.73,0,0,0,121.2,339a6.86,6.86,0,0,0,1.19-4.5v-2.34a5.32,5.32,0,0,1-2.11,2.46,6.19,6.19,0,0,1-3.23.81,6.52,6.52,0,0,1-5.52-2.76,14.27,14.27,0,0,1,0-14.78,6.86,6.86,0,0,1,2.4-2.08,7,7,0,0,1,3.14-.68,8.21,8.21,0,0,1,1.71.18,6,6,0,0,1,1.47.57,5.62,5.62,0,0,1,2.14,2.34l.32-2.55h2.89V334c0,2.95-.7,5.18-2.09,6.72S120.1,343,117.38,343Zm.37-10.28a3.82,3.82,0,0,0,3.47-1.92,13.68,13.68,0,0,0,0-11.07,3.74,3.74,0,0,0-1.51-1.44,4.46,4.46,0,0,0-2-.44,4.07,4.07,0,0,0-3.61,1.88,10.18,10.18,0,0,0-1.25,5.56,10,10,0,0,0,1.27,5.51,4,4,0,0,0,3.63,2Z"/><path class="cls-1" d="M143.6,335.45a7,7,0,0,1-2.52-.44,5.06,5.06,0,0,1-2-1.42,7.89,7.89,0,0,1-1.6-5.28V318.15H133.2v-2.53h7.55v12.69a5.46,5.46,0,0,0,.8,3.29,2.4,2.4,0,0,0,1,.84,3.17,3.17,0,0,0,1.35.27h3.78v2.74Zm-5.9-23.4a.46.46,0,0,1-.53-.38.33.33,0,0,1,0-.14v-3a.46.46,0,0,1,.38-.53h2.68a.46.46,0,0,1,.53.4.29.29,0,0,1,0,.13v3a.46.46,0,0,1-.39.52H137.7Z"/><path class="cls-1" d="M153.6,315.62h2.92l.32,3a6,6,0,0,1,2.34-2.57,6.62,6.62,0,0,1,3.48-.86,6.38,6.38,0,0,1,2.69.51,4.63,4.63,0,0,1,1.82,1.46c1,1.33,1.49,3.33,1.48,6v12.2H165.4v-12.2a6.51,6.51,0,0,0-.93-3.9,3.42,3.42,0,0,0-2.94-1.25,4.59,4.59,0,0,0-2,.4,3.92,3.92,0,0,0-1.45,1.2,7.48,7.48,0,0,0-1.23,4.62v11.13H153.6Z"/><path class="cls-1" d="M182.41,343q-.69,0-1.38-.06a9.19,9.19,0,0,1-1.42-.18,13.83,13.83,0,0,1-1.43-.3c-.43-.12-1-.26-1.49-.42v-3.2c.58.27,1.13.5,1.66.7s1,.36,1.47.49a10,10,0,0,0,2.66.39,6.17,6.17,0,0,0,2.21-.35,3.78,3.78,0,0,0,1.53-1.09,6.86,6.86,0,0,0,1.19-4.5v-2.34a5.46,5.46,0,0,1-2.1,2.46,6.22,6.22,0,0,1-3.24.81,6.52,6.52,0,0,1-5.52-2.76,14.36,14.36,0,0,1,0-14.78,6.86,6.86,0,0,1,2.4-2.08,7,7,0,0,1,3.14-.68,8.21,8.21,0,0,1,1.71.18,5.22,5.22,0,0,1,3.61,2.91l.32-2.55h2.92V334c0,2.95-.7,5.18-2.09,6.72S185.12,343,182.41,343Zm.36-10.28a3.82,3.82,0,0,0,3.47-1.92,13.68,13.68,0,0,0,0-11.07,3.61,3.61,0,0,0-1.51-1.44,4.46,4.46,0,0,0-2-.44,4.09,4.09,0,0,0-3.61,1.88,12.88,12.88,0,0,0,0,11.07,4.08,4.08,0,0,0,3.63,2Z"/><path class="cls-1" d="M218.53,315.62h2.93l.32,2.52a5.74,5.74,0,0,1,2.16-2.24,6.25,6.25,0,0,1,3.11-.75,7.24,7.24,0,0,1,3.17.68,6.49,6.49,0,0,1,2.42,2.08,9.58,9.58,0,0,1,1.52,3.29,17,17,0,0,1,.5,4.32,12.6,12.6,0,0,1-2,7.56,6.6,6.6,0,0,1-5.59,2.74,6.79,6.79,0,0,1-1.74-.2,6.45,6.45,0,0,1-1.39-.57,5.42,5.42,0,0,1-2.13-2.22v10h-3.25Zm8,17.46a3.86,3.86,0,0,0,3.53-1.92,14.26,14.26,0,0,0,0-11.35,3.86,3.86,0,0,0-3.53-1.92,4,4,0,0,0-3.57,1.92,13.89,13.89,0,0,0,0,11.33,4,4,0,0,0,3.64,1.94Z"/><path class="cls-1" d="M242.17,315.62h2.94l.31,3.85a6.8,6.8,0,0,1,2.5-3.22,7,7,0,0,1,4-1.1,8.14,8.14,0,0,1,2.25.3,7,7,0,0,1,1,.37,6.55,6.55,0,0,1,1,.56v3.3A6.65,6.65,0,0,0,254,318.5a7.37,7.37,0,0,0-2.37-.36A5.71,5.71,0,0,0,247,320a8.3,8.3,0,0,0-1.6,5.49v9.79h-3.25Z"/><path class="cls-1" d="M269.36,335.82a9.19,9.19,0,0,1-3.59-.66,6.72,6.72,0,0,1-2.66-2,8.94,8.94,0,0,1-1.64-3.31,16.78,16.78,0,0,1-.53-4.4q0-5,2.17-7.67a7.59,7.59,0,0,1,6.25-2.65,9.2,9.2,0,0,1,3.67.67,6.75,6.75,0,0,1,2.61,2q2.16,2.67,2.16,7.65a17.23,17.23,0,0,1-.53,4.46,8.6,8.6,0,0,1-1.63,3.27,6.56,6.56,0,0,1-2.63,2A9.11,9.11,0,0,1,269.36,335.82Zm0-2.74a4.21,4.21,0,0,0,3.75-1.94,13.37,13.37,0,0,0,0-11.33,4.59,4.59,0,0,0-6.4-1.07,4.53,4.53,0,0,0-1.07,1.07,13.29,13.29,0,0,0,0,11.33,4.16,4.16,0,0,0,3.72,1.94Z"/><path class="cls-1" d="M290.77,343a10.54,10.54,0,0,1-1.37-.06c-.46-.06-.93-.1-1.42-.18a13.83,13.83,0,0,1-1.43-.3c-.43-.12-1-.26-1.49-.42v-3.2c.58.27,1.13.5,1.66.7s1,.36,1.47.49a9.88,9.88,0,0,0,2.65.39,6.22,6.22,0,0,0,2.22-.35A3.7,3.7,0,0,0,294.6,339a6.86,6.86,0,0,0,1.19-4.5v-2.34a5.32,5.32,0,0,1-2.11,2.46,6.19,6.19,0,0,1-3.23.81,6.52,6.52,0,0,1-5.52-2.76,14.27,14.27,0,0,1,0-14.78,6.86,6.86,0,0,1,2.4-2.08,7,7,0,0,1,3.14-.68,8.21,8.21,0,0,1,1.71.18,6,6,0,0,1,1.47.57,5.56,5.56,0,0,1,2.14,2.34l.32-2.55H299V334c0,2.95-.7,5.18-2.09,6.72S293.49,343,290.77,343Zm.37-10.28a3.82,3.82,0,0,0,3.47-1.92,13.68,13.68,0,0,0,0-11.07,3.61,3.61,0,0,0-1.51-1.44,4.46,4.46,0,0,0-2-.44,4.07,4.07,0,0,0-3.61,1.88,10.18,10.18,0,0,0-1.25,5.56,10,10,0,0,0,1.27,5.51,4,4,0,0,0,3.63,2Z"/><path class="cls-1" d="M307.19,315.62h2.94l.31,3.85a6.86,6.86,0,0,1,2.5-3.22,7,7,0,0,1,4-1.1,8.53,8.53,0,0,1,2.25.3,7,7,0,0,1,1,.37,6.55,6.55,0,0,1,1,.56v3.3a6.65,6.65,0,0,0-2.11-1.18,7.37,7.37,0,0,0-2.37-.36A5.73,5.73,0,0,0,312.1,320a8.3,8.3,0,0,0-1.6,5.49v9.79h-3.25Z"/><path class="cls-1" d="M332.6,335.82a6.66,6.66,0,0,1-4.83-1.71,5.85,5.85,0,0,1-1.32-1.9,6.83,6.83,0,0,1-.47-2.65,5.92,5.92,0,0,1,2.21-5c1.46-1.14,3.61-1.71,6.47-1.71H339v-.51a6.18,6.18,0,0,0-.3-2,3.24,3.24,0,0,0-.89-1.43,3.73,3.73,0,0,0-1.53-.79,8.75,8.75,0,0,0-2.22-.26,12.26,12.26,0,0,0-3.35.47,14,14,0,0,0-3.29,1.39v-3.23c.49-.19,1-.38,1.63-.56s1.21-.35,1.81-.48a15.85,15.85,0,0,1,3.22-.33,12.34,12.34,0,0,1,2.27.18,9.64,9.64,0,0,1,1.9.56,8.39,8.39,0,0,1,1.54.88A5.78,5.78,0,0,1,341,318a4.89,4.89,0,0,1,.6,1.07,7.15,7.15,0,0,1,.35,1.11,19.5,19.5,0,0,1,.29,3.89v4c0,.68,0,1.28.05,1.8a13.93,13.93,0,0,0,.1,1.44c.06.49.13,1,.21,1.39s.14.76.2,1,.17.67.28,1,.17.51.19.57H340c-.06-.14-.13-.35-.22-.62s-.17-.58-.25-.91-.12-.52-.17-.78-.09-.49-.12-.68a5.83,5.83,0,0,1-1.31,1.57,8.47,8.47,0,0,1-1.57,1.09,7.42,7.42,0,0,1-1.78.64A9.8,9.8,0,0,1,332.6,335.82Zm.67-2.71a5.16,5.16,0,0,0,4.19-1.86,7.91,7.91,0,0,0,1.54-5.12v-.72h-4.09a7.47,7.47,0,0,0-4.26,1,3.16,3.16,0,0,0-1.1,1.25,4.66,4.66,0,0,0-.06,3.33,3.38,3.38,0,0,0,.79,1.15,4.07,4.07,0,0,0,1.24.72,5.31,5.31,0,0,0,1.72.25Z"/><path class="cls-1" d="M347.15,315.62h2.65l.28,1.69a4.55,4.55,0,0,1,1.46-1.62,3.71,3.71,0,0,1,2-.54,3.93,3.93,0,0,1,2.21.61,4,4,0,0,1,1.37,1.87,4.32,4.32,0,0,1,1.53-1.88,4.06,4.06,0,0,1,2.22-.6,4.17,4.17,0,0,1,2.05.46,3.15,3.15,0,0,1,1.31,1.37c.67,1.21,1,3.51,1,6.92v11.41h-3V322a7,7,0,0,0-.09-1.46c-.09-.41-.09-.77-.14-1.06a2.78,2.78,0,0,0-.22-.69,1.46,1.46,0,0,0-.59-.73,2.11,2.11,0,0,0-1.15-.28A2.28,2.28,0,0,0,359,318a1.64,1.64,0,0,0-.72.82,5.68,5.68,0,0,0-.42,1.82,30.68,30.68,0,0,0-.23,3.32v11.27h-3V321.83a11.25,11.25,0,0,0-.11-1.48,6.74,6.74,0,0,0-.17-1,4.1,4.1,0,0,0-.2-.59,1.64,1.64,0,0,0-.66-.72,2.44,2.44,0,0,0-2.27,0,1.86,1.86,0,0,0-.62.77,3.09,3.09,0,0,0-.22.67c-.06.27-.12.6-.17,1s-.08.89-.1,1.45,0,1.23,0,2v11.27H347.2Z"/><path class="cls-1" d="M368.82,315.62h2.66l.28,1.69a4.29,4.29,0,0,1,1.46-1.62,3.63,3.63,0,0,1,2-.54,3.88,3.88,0,0,1,2.22.61,4,4,0,0,1,1.37,1.87,4.32,4.32,0,0,1,1.53-1.88,4,4,0,0,1,2.21-.6,4.23,4.23,0,0,1,2.06.46,3.19,3.19,0,0,1,1.3,1.37c.64,1.21,1,3.52,1,6.92v11.41h-3V322a7,7,0,0,0-.09-1.46,9.32,9.32,0,0,0-.15-1.06,2.75,2.75,0,0,0-.21-.69,1.59,1.59,0,0,0-.6-.73,2,2,0,0,0-1.14-.28,2.34,2.34,0,0,0-1.13.26,1.79,1.79,0,0,0-.72.82,5.68,5.68,0,0,0-.42,1.82c-.08.8-.12,1.9-.12,3.29v11.27h-3V321.83a11.25,11.25,0,0,0-.11-1.48,6.72,6.72,0,0,0-.16-1,5.89,5.89,0,0,0-.21-.59,1.68,1.68,0,0,0-.65-.72,2.09,2.09,0,0,0-1.12-.27,2,2,0,0,0-1.15.29,1.75,1.75,0,0,0-.63.77,4,4,0,0,0-.22.67,8.33,8.33,0,0,0-.16,1c-.05.4-.09.89-.11,1.45s0,1.23,0,2v11.27h-2.94Z"/><path class="cls-1" d="M403.68,335.45a7,7,0,0,1-2.52-.44,5,5,0,0,1-2-1.42,7.89,7.89,0,0,1-1.6-5.28V318.15h-4.31v-2.53h7.54v12.69a5.52,5.52,0,0,0,.81,3.29,2.4,2.4,0,0,0,1,.84,3.09,3.09,0,0,0,1.34.27h3.78v2.74Zm-5.91-23.4a.46.46,0,0,1-.53-.38.33.33,0,0,1,0-.14v-3a.46.46,0,0,1,.4-.53h2.66a.46.46,0,0,1,.53.4.29.29,0,0,1,0,.13v3a.46.46,0,0,1-.39.52h-2.67Z"/><path class="cls-1" d="M413.68,315.62h2.92l.31,3a6.24,6.24,0,0,1,2.34-2.57,6.71,6.71,0,0,1,3.48-.86,6.38,6.38,0,0,1,2.69.51,4.73,4.73,0,0,1,1.83,1.46c1,1.32,1.48,3.32,1.48,6v12.2h-3.25v-12.2a6.59,6.59,0,0,0-.94-3.9A3.42,3.42,0,0,0,421.6,318a4.59,4.59,0,0,0-2,.4,3.87,3.87,0,0,0-1.46,1.2,7.48,7.48,0,0,0-1.23,4.62v11.13h-3.23Z"/><path class="cls-1" d="M442.49,343a10.47,10.47,0,0,1-1.37-.06c-.46-.06-.93-.1-1.42-.18a14.61,14.61,0,0,1-1.44-.3c-.44-.12-1-.26-1.48-.42v-3.2c.57.27,1.13.5,1.66.7s1,.36,1.47.49a9.88,9.88,0,0,0,2.65.39,6.22,6.22,0,0,0,2.22-.35,3.78,3.78,0,0,0,1.53-1.09,7,7,0,0,0,1.19-4.5v-2.34a5.48,5.48,0,0,1-2.11,2.46,6.19,6.19,0,0,1-3.23.81,6.52,6.52,0,0,1-5.52-2.76,14.27,14.27,0,0,1,0-14.78,6.86,6.86,0,0,1,2.4-2.08,6.93,6.93,0,0,1,3.13-.68,8.23,8.23,0,0,1,1.72.18,6,6,0,0,1,1.47.57,5.62,5.62,0,0,1,2.14,2.34l.32-2.55h2.91V334c0,2.95-.69,5.18-2.09,6.72S445.21,343,442.49,343Zm.37-10.28a3.79,3.79,0,0,0,3.46-1.92,13.6,13.6,0,0,0,0-11.07,3.71,3.71,0,0,0-1.5-1.44,4.46,4.46,0,0,0-2-.44,4.08,4.08,0,0,0-3.6,1.88,10.18,10.18,0,0,0-1.25,5.56,9.91,9.91,0,0,0,1.27,5.51,4.07,4.07,0,0,0,3.62,2Z"/><path class="cls-1" d="M484.33,333.92q-1.5-1.44-1.5-5V318.14H477.6v-2.52h5.25v-5.15l3.24-1.4v6.55h7.34v2.52h-7.34v10.75a4.4,4.4,0,0,0,.82,3,3.83,3.83,0,0,0,2.89.87h3.63v2.58h-3.95C487.05,335.38,485.33,334.89,484.33,333.92Z"/><path class="cls-1" d="M506,335.82a6.67,6.67,0,0,1-4.84-1.71,5.85,5.85,0,0,1-1.32-1.9,6.83,6.83,0,0,1-.47-2.65,5.92,5.92,0,0,1,2.21-5c1.46-1.14,3.61-1.71,6.47-1.71h4.34v-.51a6.18,6.18,0,0,0-.3-2,3.24,3.24,0,0,0-.89-1.43,3.73,3.73,0,0,0-1.53-.79,8.75,8.75,0,0,0-2.22-.26,12.26,12.26,0,0,0-3.35.47,14,14,0,0,0-3.29,1.39v-3.23c.49-.19,1-.38,1.63-.56s1.21-.35,1.82-.48a15.75,15.75,0,0,1,3.21-.33,12.34,12.34,0,0,1,2.27.18,9.64,9.64,0,0,1,1.9.56,8.39,8.39,0,0,1,1.54.88,6.07,6.07,0,0,1,1.24,1.24,5.3,5.3,0,0,1,.59,1.07,6.22,6.22,0,0,1,.35,1.11,19.5,19.5,0,0,1,.29,3.89v4c0,.68,0,1.28,0,1.8a12.52,12.52,0,0,0,.1,1.44c.1.44.13,1,.21,1.39s.14.76.2,1,.17.67.28,1,.17.51.19.57H513.4c-.06-.14-.13-.35-.22-.62s-.17-.58-.25-.91-.12-.52-.17-.78-.09-.49-.12-.68a6,6,0,0,1-1.3,1.57,9.45,9.45,0,0,1-1.58,1.09,7.42,7.42,0,0,1-1.78.64A9.71,9.71,0,0,1,506,335.82Zm.66-2.71a5.16,5.16,0,0,0,4.19-1.86,7.91,7.91,0,0,0,1.54-5.12v-.72h-4.09a7.55,7.55,0,0,0-4.26,1,3.07,3.07,0,0,0-1.09,1.25,4.17,4.17,0,0,0-.35,1.74,4.34,4.34,0,0,0,.28,1.59,3.48,3.48,0,0,0,.79,1.15,4.07,4.07,0,0,0,1.24.72,5.31,5.31,0,0,0,1.72.25Z"/><path class="cls-1" d="M530.53,335a5.06,5.06,0,0,1-2-1.42,7.89,7.89,0,0,1-1.6-5.28V310.49h-5.18V308h8.42v20.35a5.6,5.6,0,0,0,.8,3.29,2.55,2.55,0,0,0,1,.84,3.17,3.17,0,0,0,1.35.27h3.78v2.74H533A7,7,0,0,1,530.53,335Z"/><path class="cls-1" d="M552.2,335.82a11.28,11.28,0,0,1-4.07-.69,8.17,8.17,0,0,1-3.07-2.05,9.21,9.21,0,0,1-1.93-3.26,14.73,14.73,0,0,1,0-8.67A9.46,9.46,0,0,1,545,318a7.94,7.94,0,0,1,3-2.12,9.81,9.81,0,0,1,3.71-.69,8.36,8.36,0,0,1,3.46.65,6.94,6.94,0,0,1,2.54,1.88,8.55,8.55,0,0,1,1.61,3,13.24,13.24,0,0,1,.55,4v1.58h-14v.1a6.88,6.88,0,0,0,1.69,5,5.41,5.41,0,0,0,2,1.3,7.57,7.57,0,0,0,2.75.46,11.54,11.54,0,0,0,3.25-.5,19.51,19.51,0,0,0,3.6-1.49v3.22c-.62.26-1.22.48-1.81.67s-1.16.34-1.74.47a13.38,13.38,0,0,1-1.68.28A16.28,16.28,0,0,1,552.2,335.82Zm4.4-12.11a9.09,9.09,0,0,0-.4-2.59,4.87,4.87,0,0,0-.94-1.75,3.76,3.76,0,0,0-1.56-1.11,5.57,5.57,0,0,0-2.1-.37,5.13,5.13,0,0,0-3.86,1.55,7,7,0,0,0-1.8,4.29Z"/><path class="cls-1" d="M565.4,315.62h2.91l.32,3a6.24,6.24,0,0,1,2.34-2.57,6.62,6.62,0,0,1,3.48-.86,6.38,6.38,0,0,1,2.69.51,4.73,4.73,0,0,1,1.83,1.46q1.47,2,1.47,6v12.2h-3.25v-12.2a6.51,6.51,0,0,0-.93-3.9,3.42,3.42,0,0,0-2.94-1.25,4.59,4.59,0,0,0-2,.4,3.92,3.92,0,0,0-1.45,1.2,7.48,7.48,0,0,0-1.23,4.62v11.13H565.4Z"/><path class="cls-1" d="M592.7,333.92q-1.5-1.44-1.5-5V318.14H586v-2.52h5.25v-5.15l3.24-1.4v6.55h7.34v2.52h-7.34v10.75a4.4,4.4,0,0,0,.82,3,3.85,3.85,0,0,0,2.88.87h3.64v2.58h-3.95C595.41,335.37,593.7,334.89,592.7,333.92Z"/><path class="cls-1" d="M245.18,393.92q-1.5-1.44-1.5-5V378.14h-5.25v-2.52h5.25v-5.15l3.24-1.4v6.55h7.34v2.52h-7.34v10.75a4.4,4.4,0,0,0,.82,3,3.83,3.83,0,0,0,2.89.87h3.63v2.58h-4C247.9,395.38,246.18,394.89,245.18,393.92Z"/><path class="cls-1" d="M268.6,395.82a9.23,9.23,0,0,1-3.6-.66,6.72,6.72,0,0,1-2.66-2,8.94,8.94,0,0,1-1.64-3.31,16.77,16.77,0,0,1-.52-4.4q0-5,2.16-7.67a7.59,7.59,0,0,1,6.26-2.65,9.18,9.18,0,0,1,3.66.67,6.75,6.75,0,0,1,2.61,2q2.16,2.67,2.16,7.65a17.23,17.23,0,0,1-.53,4.46,8.6,8.6,0,0,1-1.63,3.27,6.56,6.56,0,0,1-2.63,2A9.09,9.09,0,0,1,268.6,395.82Zm0-2.74a4.2,4.2,0,0,0,3.74-1.94,13.29,13.29,0,0,0,0-11.33,4.59,4.59,0,0,0-6.4-1.07,4.53,4.53,0,0,0-1.07,1.07,13.29,13.29,0,0,0,0,11.33,4.18,4.18,0,0,0,3.73,1.94Z"/><path class="cls-1" d="M304.38,400.09h1.92a3.34,3.34,0,0,0,1.33-.24,2.56,2.56,0,0,0,.9-.59,5.88,5.88,0,0,0,.88-1.38A27.7,27.7,0,0,0,310.6,395L303,375.63h3.43l5.84,15.4,5.75-15.4h3.42L316.23,389c-.28.73-.5,1.29-.66,1.69l-.37.94c-.09.23-.16.4-.2.53s-.1.26-.16.43l-.24.65-.43,1.18c-.35.94-.65,1.74-.9,2.39s-.48,1.18-.66,1.6-.35.77-.47,1l-.31.61a6.33,6.33,0,0,1-.86,1.19,4.82,4.82,0,0,1-1.16.9,5.7,5.7,0,0,1-2.83.69h-2.6Z"/><path class="cls-1" d="M333.65,395.82a9.23,9.23,0,0,1-3.6-.66,6.82,6.82,0,0,1-2.66-2,9,9,0,0,1-1.64-3.31,16.77,16.77,0,0,1-.52-4.4q0-5,2.16-7.67a7.59,7.59,0,0,1,6.26-2.65,9.18,9.18,0,0,1,3.66.67,6.75,6.75,0,0,1,2.61,2q2.16,2.67,2.16,7.65a16.81,16.81,0,0,1-.53,4.46,8.6,8.6,0,0,1-1.63,3.27,6.56,6.56,0,0,1-2.63,2A9.09,9.09,0,0,1,333.65,395.82Zm0-2.74a4.2,4.2,0,0,0,3.74-1.94,13.29,13.29,0,0,0,0-11.33,4.59,4.59,0,0,0-6.4-1.07,4.53,4.53,0,0,0-1.07,1.07,13.29,13.29,0,0,0,0,11.33,4.18,4.18,0,0,0,3.73,1.94Z"/><path class="cls-1" d="M353.88,395.82a5.23,5.23,0,0,1-4.48-2c-1-1.33-1.49-3.33-1.48-6v-12.2h3.23v12.2a6.45,6.45,0,0,0,1,3.9,3.06,3.06,0,0,0,1.16.92A4,4,0,0,0,355,393a4.09,4.09,0,0,0,3.5-1.62,7.51,7.51,0,0,0,1.22-4.61V375.66H363v19.65H360l-.31-2.95a6.2,6.2,0,0,1-2.34,2.58A6.7,6.7,0,0,1,353.88,395.82Z"/><path class="cls-1" d="M371.48,375.62h2.93l.32,3.85a6.78,6.78,0,0,1,2.49-3.22,7,7,0,0,1,4-1.1,8.14,8.14,0,0,1,2.25.3,7,7,0,0,1,1,.37,6.55,6.55,0,0,1,1,.56v3.3a6.61,6.61,0,0,0-2.1-1.18,7.39,7.39,0,0,0-2.38-.36,5.69,5.69,0,0,0-4.6,1.89,8.25,8.25,0,0,0-1.6,5.49v9.79h-3.25Z"/><path class="cls-1" d="M414.82,375.62h2.94l.31,3.85a6.86,6.86,0,0,1,2.5-3.22,7,7,0,0,1,4-1.1,8.53,8.53,0,0,1,2.25.3,7,7,0,0,1,1,.37,6.55,6.55,0,0,1,1,.56v3.3a6.65,6.65,0,0,0-2.11-1.18,7.37,7.37,0,0,0-2.37-.36,5.73,5.73,0,0,0-4.61,1.89,8.3,8.3,0,0,0-1.6,5.49v9.79h-3.25Z"/><path class="cls-1" d="M443.09,395.82a11.28,11.28,0,0,1-4.07-.69,8.5,8.5,0,0,1-3.07-2.05,9.19,9.19,0,0,1-1.92-3.26,13.17,13.17,0,0,1-.66-4.32,12.85,12.85,0,0,1,.67-4.35,9.44,9.44,0,0,1,1.84-3.19,8.05,8.05,0,0,1,3-2.12,9.81,9.81,0,0,1,3.71-.69,8.34,8.34,0,0,1,3.45.65,6.94,6.94,0,0,1,2.54,1.88,8.55,8.55,0,0,1,1.61,3,13.24,13.24,0,0,1,.55,4v1.58h-14v.1a6.93,6.93,0,0,0,1.69,5,5.41,5.41,0,0,0,2,1.3,7.57,7.57,0,0,0,2.75.46,11.54,11.54,0,0,0,3.25-.5,20.32,20.32,0,0,0,3.61-1.49v3.22c-.62.26-1.23.48-1.81.67s-1.17.34-1.74.47a13.85,13.85,0,0,1-1.69.28A16.28,16.28,0,0,1,443.09,395.82Zm4.43-12.11a9.09,9.09,0,0,0-.4-2.59,4.87,4.87,0,0,0-.94-1.75,3.76,3.76,0,0,0-1.56-1.11,5.55,5.55,0,0,0-2.09-.37,5.15,5.15,0,0,0-3.87,1.55,6.92,6.92,0,0,0-1.79,4.29Z"/><path class="cls-1" d="M463.23,395.82a11.13,11.13,0,0,1-1.59-.08c-.59-.08-1.07-.13-1.57-.22s-1-.22-1.61-.39-1.23-.34-1.85-.54v-3.34c.75.37,1.38.66,1.91.87a12.26,12.26,0,0,0,1.55.52,13.09,13.09,0,0,0,1.53.36,10.28,10.28,0,0,0,1.57.12,5.49,5.49,0,0,0,3.32-.88,2.67,2.67,0,0,0,.9-1.07,3.16,3.16,0,0,0,.28-1.25,2.37,2.37,0,0,0-1-2,8.37,8.37,0,0,0-3.27-1.22h-.14l-1.21-.24a13,13,0,0,1-2.35-.71,5.54,5.54,0,0,1-1.73-1.14,4.75,4.75,0,0,1-1.28-3.53,6.24,6.24,0,0,1,.48-2.52,4.86,4.86,0,0,1,1.43-1.84,6.28,6.28,0,0,1,2.39-1.17,12.53,12.53,0,0,1,3.11-.36,11.12,11.12,0,0,1,1.52.07,12.42,12.42,0,0,1,1.49.21c.45.09.91.21,1.4.36a15.07,15.07,0,0,1,1.47.52v3.16a12.88,12.88,0,0,0-2.8-1.21,11,11,0,0,0-1.41-.3,11.25,11.25,0,0,0-1.53-.11,8.06,8.06,0,0,0-1.83.18,4,4,0,0,0-1.36.53,2.43,2.43,0,0,0-1.09,2.19,2.9,2.9,0,0,0,.2,1.13,1.91,1.91,0,0,0,.6.83,4.48,4.48,0,0,0,1.35.62,22.23,22.23,0,0,0,2.68.64l1.3.25a8.15,8.15,0,0,1,2.16.7,4.85,4.85,0,0,1,2.73,4.71,5.94,5.94,0,0,1-.54,2.63,5.4,5.4,0,0,1-1.54,1.91,7.09,7.09,0,0,1-2.5,1.25A12.1,12.1,0,0,1,463.23,395.82Z"/><path class="cls-1" d="M486.44,395.82a11.28,11.28,0,0,1-4.07-.69,8.17,8.17,0,0,1-3.07-2.05,9.21,9.21,0,0,1-1.93-3.26,14.73,14.73,0,0,1,0-8.67,9.46,9.46,0,0,1,1.85-3.19,7.94,7.94,0,0,1,3-2.12,9.81,9.81,0,0,1,3.71-.69,8.36,8.36,0,0,1,3.46.65,6.94,6.94,0,0,1,2.54,1.88,8.55,8.55,0,0,1,1.61,3,13.24,13.24,0,0,1,.55,4v1.58h-14v.1a6.88,6.88,0,0,0,1.69,5,5.41,5.41,0,0,0,2,1.3,7.57,7.57,0,0,0,2.75.46,11.54,11.54,0,0,0,3.25-.5,19.51,19.51,0,0,0,3.6-1.49v3.22c-.62.26-1.22.48-1.81.67s-1.16.34-1.74.47a13.38,13.38,0,0,1-1.68.28A16.28,16.28,0,0,1,486.44,395.82Zm4.43-12.11a9.09,9.09,0,0,0-.4-2.59,4.87,4.87,0,0,0-.94-1.75,3.76,3.76,0,0,0-1.56-1.11,5.57,5.57,0,0,0-2.1-.37,5.13,5.13,0,0,0-3.86,1.55,7,7,0,0,0-1.8,4.29Z"/><path class="cls-1" d="M505.23,395.82a6.67,6.67,0,0,1-4.84-1.71,5.85,5.85,0,0,1-1.32-1.9,6.83,6.83,0,0,1-.47-2.65,5.92,5.92,0,0,1,2.21-5c1.46-1.14,3.61-1.71,6.47-1.71h4.32v-.51a6.18,6.18,0,0,0-.3-2,3.26,3.26,0,0,0-.9-1.43,3.73,3.73,0,0,0-1.53-.79,8.68,8.68,0,0,0-2.21-.26,12.28,12.28,0,0,0-3.36.47,14,14,0,0,0-3.29,1.39v-3.23a17.23,17.23,0,0,1,1.64-.56,18.53,18.53,0,0,1,1.81-.48,15.75,15.75,0,0,1,3.21-.33,12.34,12.34,0,0,1,2.27.18,9.64,9.64,0,0,1,1.9.56,8.39,8.39,0,0,1,1.54.88,6.07,6.07,0,0,1,1.24,1.24,5.3,5.3,0,0,1,.59,1.07,7.19,7.19,0,0,1,.36,1.11,20.26,20.26,0,0,1,.28,3.89v4c0,.68,0,1.28,0,1.8a14,14,0,0,0,.11,1.44,7,7,0,0,0,.2,1.39c.08.39.14.76.2,1s.18.71.28,1l.19.57h-3.25c-.06-.14-.13-.35-.22-.62s-.17-.58-.25-.91-.12-.52-.17-.78-.09-.49-.11-.68a6.37,6.37,0,0,1-1.31,1.57,9.45,9.45,0,0,1-1.58,1.09,7,7,0,0,1-1.78.64A10.13,10.13,0,0,1,505.23,395.82Zm.66-2.71a5.16,5.16,0,0,0,4.19-1.86,7.83,7.83,0,0,0,1.55-5.12v-.72h-4.1a7.46,7.46,0,0,0-4.25,1,3,3,0,0,0-1.1,1.25,4.5,4.5,0,0,0-.06,3.33,3.28,3.28,0,0,0,.79,1.15,3.77,3.77,0,0,0,1.24.72,5.39,5.39,0,0,0,1.74.25Z"/><path class="cls-1" d="M523.19,375.62h2.94l.31,3.85a6.8,6.8,0,0,1,2.5-3.22,7,7,0,0,1,3.95-1.1,8.14,8.14,0,0,1,2.25.3,7,7,0,0,1,1,.37,6.55,6.55,0,0,1,1,.56v3.3A6.65,6.65,0,0,0,535,378.5a7.37,7.37,0,0,0-2.37-.36,5.71,5.71,0,0,0-4.61,1.89,8.3,8.3,0,0,0-1.6,5.49v9.79H523.2Z"/><path class="cls-1" d="M552.07,395.82a11.16,11.16,0,0,1-4-.69,8.14,8.14,0,0,1-3.06-2.05,8.93,8.93,0,0,1-1.93-3.28,13.47,13.47,0,0,1-.64-4.32,13,13,0,0,1,.68-4.41,8.9,8.9,0,0,1,1.9-3.2,8.37,8.37,0,0,1,3.09-2.05,11.14,11.14,0,0,1,4-.67,12.29,12.29,0,0,1,1.49.09,7.82,7.82,0,0,1,1.36.28,11.79,11.79,0,0,1,2.72,1.14v3.39a13.75,13.75,0,0,0-1.28-1,6.25,6.25,0,0,0-1.28-.67,8.06,8.06,0,0,0-2.92-.51,5.78,5.78,0,0,0-4.7,2,8.6,8.6,0,0,0-1.63,5.61,12.17,12.17,0,0,0,.38,3.12,6.34,6.34,0,0,0,1.25,2.5,5.82,5.82,0,0,0,4.75,2,8.68,8.68,0,0,0,1.61-.14,7.64,7.64,0,0,0,1.34-.39,7,7,0,0,0,1.37-.69,10.74,10.74,0,0,0,1.11-.91v3.36a12.12,12.12,0,0,1-1.3.65,13.12,13.12,0,0,1-1.37.49,7.76,7.76,0,0,1-1.34.27A12.25,12.25,0,0,1,552.07,395.82Z"/><path class="cls-1" d="M564.66,368h3.23v10.62a6.24,6.24,0,0,1,2.34-2.57,6.62,6.62,0,0,1,3.48-.86,6.38,6.38,0,0,1,2.69.51,4.73,4.73,0,0,1,1.83,1.46c1,1.32,1.48,3.32,1.48,6v12.2h-3.26v-12.2a6.51,6.51,0,0,0-.93-3.9A3.43,3.43,0,0,0,572.6,378a4.59,4.59,0,0,0-2,.4,4,4,0,0,0-1.45,1.2,7.48,7.48,0,0,0-1.23,4.62v11.13h-3.23Z"/><path class="cls-1" d="M598.53,369.07h3.34l-13.81,29.58H584.7Z"/><path class="cls-1" d="M606.13,389.61,621.07,384l-14.94-5.62v-3.2l18.58,7.35v2.91l-18.58,7.35Z"/><path class="cls-2" d="M627.43,325.36l21.06.39a3,3,0,0,1,2.94,3v24a3,3,0,0,1-3,3l-455.27,1a4,4,0,0,0-4,4v20.53a3,3,0,0,0,2.86,2.94l21.14.6"/><circle class="cls-3" cx="629.43" cy="325.36" r="8.5"/><circle class="cls-3" cx="211.35" cy="384.84" r="8.5"/><path class="cls-3" d="M90.8,54c0,27-19.2,49-46.2,49H7.78V5H44.6C71.6,5,90.8,27,90.8,54Zm-7.28,0c0-23.24-15.82-42-38.92-42H15.2V96H44.6C67.7,96,83.52,77.24,83.52,54Z"/><path class="cls-3" d="M136.72,32v6.72c-12,0-23.38,7.42-23.38,25.34V103h-7V33h7V46.72C118.1,35.66,127.2,32,136.72,32Z"/><path class="cls-3" d="M210.92,68.28c0,1.12-.14,2.24-.14,3.36H147.36C149,87.46,161.08,97.82,177,97.82c11.48,0,20.16-5.32,24.22-12.74l6.16,3.64c-5.74,9.52-16.66,15.82-30.52,15.82-21.56,0-36.82-15.4-36.82-36.54,0-20.58,14.84-36.54,36.26-36.54S210.92,49.1,210.92,68.28Zm-63.56-3.5H203.6c-1.54-17.08-13.58-26.6-27.3-26.6-15.92,0-27.54,11.06-28.94,26.6Z"/><path class="cls-3" d="M294.6,33v70h-7.1V87.18a33.65,33.65,0,0,1-30.1,17.36,36.54,36.54,0,1,1,0-73.08,33.65,33.65,0,0,1,30.1,17.36V33Zm-7.1,35c0-16.66-12.88-29.82-29.54-29.82a29.82,29.82,0,1,0,0,59.64C274.6,97.82,287.5,84.66,287.5,68Z"/><path class="cls-3" d="M415,58.62V103h-7V58.62c0-13.3-7.7-20.44-18.62-20.44-11.76,0-21,7.84-21,25.76V103h-7V58.62c0-13.3-7.14-20.44-17.92-20.44-11.48,0-21.7,7.84-21.7,25.76V103h-7V33h7V45c5.18-9.66,13.58-13.58,22.54-13.58,10.22,0,18.2,5,21.84,14.28A25.51,25.51,0,0,1,389.6,31.46C404.4,31.46,415,41.12,415,58.62Z"/><path class="cls-3" d="M521.71,59.46V103H514.6V59.46c0-12.88-7.42-21.28-20.58-21.28-13.72,0-24.5,9-24.5,27.86v37h-7V33h7V46.3c5.32-10.36,14.28-14.84,25.06-14.84C511.21,31.46,521.71,42.52,521.71,59.46Z"/><path class="cls-3" d="M609.21,33V99.64c0,21-15.54,32.9-34.86,32.9-16.38,0-28-6.58-33-16.8l6.16-3.5c3.64,7.42,11.48,13.58,26.88,13.58,17.5,0,27.86-10.22,27.86-26.18V86.76c-5.74,10.78-16.52,17.78-30.1,17.78a36.06,36.06,0,0,1-36.3-35.82V68a36.06,36.06,0,0,1,35.58-36.54h.68c13.58,0,24.36,7,30.1,17.78V33Zm-7,35a29.53,29.53,0,1,0,0,.58Z"/><path class="cls-3" d="M1.9,206.44l6.44-3.78c3.36,11.76,13.26,19.74,29.4,19.74,16.38,0,24.64-8.4,24.64-19.6C62.38,191,52,186.56,37,181.8,20.66,176.48,6,171.86,6,154.8c0-16.1,13-26.32,29.68-26.32,16.1,0,26.74,9.24,31.5,20.58l-6.3,3.5c-3.64-8.84-11.24-17-25.24-17-13.58,0-22.12,8-22.12,18.9,0,11.76,9.94,15.4,23.94,20,17.36,5.74,32.48,11.2,32.48,28.14,0,16.24-12.74,26.88-32.2,26.88C19.4,229.54,6.38,220.3,1.9,206.44Z"/><path class="cls-3" d="M157.3,193a36.06,36.06,0,0,1-35.58,36.54H121c-13.58,0-24.36-7-30.1-17.78V256h-7V158h7v16.24c5.74-10.78,16.52-17.78,30.1-17.78a36.05,36.05,0,0,1,36.26,35.86Zm-7,0a29.52,29.52,0,1,0,0,.6Z"/><path class="cls-3" d="M233.6,157v6.72c-12,0-23.38,7.42-23.38,25.34V228h-7V158h7v13.72C215,160.66,224.08,157,233.6,157Z"/><path class="cls-3" d="M307.52,193.28c0,1.12-.14,2.24-.14,3.36H244c1.68,15.82,13.72,26.18,29.68,26.18,11.48,0,20.16-5.32,24.22-12.74l6.16,3.64c-5.74,9.52-16.66,15.82-30.52,15.82-21.56,0-36.82-15.4-36.82-36.54,0-20.58,14.84-36.54,36.26-36.54S307.52,174.1,307.52,193.28ZM244,189.78h56.28c-1.54-17.08-13.58-26.6-27.3-26.6-16,0-27.58,11.06-29,26.6Z"/><path class="cls-3" d="M366.18,209.66c0,11.48-10.08,19.88-25.06,19.88-14,0-23.24-6.58-26.6-15.54l6-3.5c2.52,7.56,10.08,12.32,20.58,12.32,9.8,0,18.06-4.34,18.06-13.16,0-19-42.42-8.12-42.42-33.32,0-11.06,9.52-19.88,23.8-19.88,11.34,0,20,5.46,23.8,14l-5.88,3.36c-2.94-7.28-10.22-10.64-17.92-10.64-9.1,0-16.8,4.76-16.8,13.16C323.76,195.1,366.18,184,366.18,209.66Z"/><path class="cls-4" d="M439.88,14.17V251.44a9.07,9.07,0,0,1-9.07,9.07H188.66a9.08,9.08,0,0,1-9.08-9.07V134.64"/><circle class="cls-5" cx="179.58" cy="139.34" r="14.17"/><circle class="cls-5" cx="439.88" cy="14.17" r="14.17"/></svg>